<?xml version="1.0" encoding="UTF-8" standalone="no"?>
<svg
   xmlns:dc="http://purl.org/dc/elements/1.1/"
   xmlns:cc="http://creativecommons.org/ns#"
   xmlns:rdf="http://www.w3.org/1999/02/22-rdf-syntax-ns#"
   xmlns:svg="http://www.w3.org/2000/svg"
   xmlns="http://www.w3.org/2000/svg"
   width="250.00031mm"
   height="139.25642mm"
   viewBox="0 0 250.00031 139.25642"
   version="1.1"
   id="svg2751">
  <defs
     id="defs2745" />
  <metadata
     id="metadata2748">
    <rdf:RDF>
      <cc:Work
         rdf:about="">
        <dc:format>image/svg+xml</dc:format>
        <dc:type
           rdf:resource="http://purl.org/dc/dcmitype/StillImage" />
        <dc:title></dc:title>
      </cc:Work>
    </rdf:RDF>
  </metadata>
  <g
     id="layer1"
     transform="translate(36.553725,-46.788454)">
    <g
       id="g1388"
       transform="matrix(0.35277777,0,0,-0.35277777,-27.087639,155.84089)">
      <path
         d="m 0,0 v -6.86 h -18.197 v -11.58 h 14.581 v -6.616 H -18.197 V -43.25 h -8.636 V 0 Z"
         style="fill:#091a37;fill-opacity:1;fill-rule:nonzero;stroke:none"
         id="path1390" />
    </g>
    <g
       id="g1400"
       transform="matrix(0.35277777,0,0,-0.35277777,-20.753655,159.03966)">
      <path
         d="m 0,0 c -1.921,-1.142 -3.421,-2.786 -4.501,-4.929 -1.083,-2.146 -1.624,-4.645 -1.624,-7.505 0,-2.86 0.541,-5.363 1.624,-7.505 1.08,-2.143 2.58,-3.787 4.501,-4.934 1.918,-1.142 4.146,-1.713 6.679,-1.713 2.53,0 4.757,0.571 6.676,1.713 1.92,1.147 3.421,2.791 4.504,4.934 1.08,2.142 1.621,4.645 1.621,7.505 0,2.86 -0.541,5.359 -1.621,7.505 C 16.776,-2.786 15.275,-1.142 13.355,0 11.436,1.146 9.209,1.718 6.679,1.718 4.146,1.718 1.918,1.146 0,0 m 17.674,6.861 c 3.286,-1.877 5.881,-4.499 7.782,-7.87 1.898,-3.372 2.848,-7.177 2.848,-11.425 0,-4.249 -0.95,-8.067 -2.848,-11.457 -1.901,-3.389 -4.496,-6.025 -7.782,-7.902 -3.287,-1.878 -6.953,-2.818 -10.995,-2.818 -4.045,0 -7.711,0.94 -10.998,2.818 -3.286,1.877 -5.881,4.513 -7.779,7.902 -1.901,3.39 -2.848,7.208 -2.848,11.457 0,4.248 0.947,8.053 2.848,11.425 1.898,3.371 4.493,5.993 7.779,7.87 3.287,1.878 6.953,2.819 10.998,2.819 4.042,0 7.708,-0.941 10.995,-2.819"
         style="fill:#091a37;fill-opacity:1;fill-rule:nonzero;stroke:none"
         id="path1402" />
    </g>
    <g
       id="g1404"
       transform="matrix(0.35277777,0,0,-0.35277777,-5.2607135,163.05868)">
      <path
         d="m 0,0 h 7.108 c 4.94,0 7.412,2.184 7.412,6.556 0,2.083 -0.603,3.704 -1.807,4.869 C 11.507,12.59 9.639,13.17 7.108,13.17 H 0 Z M 13.908,-22.79 3.798,-5.942 H 0 V -22.79 H -8.636 V 20.46 H 7.843 c 5.023,0 8.851,-1.224 11.487,-3.677 2.633,-2.448 3.951,-5.674 3.951,-9.675 0,-3.271 -0.909,-6.006 -2.727,-8.213 -1.818,-2.202 -4.44,-3.673 -7.871,-4.409 L 23.464,-22.79 Z"
         style="fill:#091a37;fill-opacity:1;fill-rule:nonzero;stroke:none"
         id="path1406" />
    </g>
    <g
       id="g1408"
       transform="matrix(0.35277777,0,0,-0.35277777,8.3742884,158.26105)">
      <path
         d="m 0,0 v -11.21 h 15.316 v -6.615 H 0 V -29.469 H 17.155 V -36.39 H -8.636 V 6.86 H 17.155 V 0 Z"
         style="fill:#091a37;fill-opacity:1;fill-rule:nonzero;stroke:none"
         id="path1410" />
    </g>
    <g
       id="g1412"
       transform="matrix(0.35277777,0,0,-0.35277777,29.979704,171.09852)">
      <path
         d="m 0,0 h -8.638 l -19.36,29.404 V 0 h -8.635 v 43.25 h 8.635 L -8.638,13.6 V 43.25 H 0 Z"
         style="fill:#091a37;fill-opacity:1;fill-rule:nonzero;stroke:none"
         id="path1414" />
    </g>
    <g
       id="g1416"
       transform="matrix(0.35277777,0,0,-0.35277777,42.94651,169.07764)">
      <path
         d="m 0,0 c -1.103,-1.859 -2.736,-3.349 -4.901,-4.472 -2.165,-1.124 -4.799,-1.685 -7.903,-1.685 -3.063,0 -5.799,0.52 -8.209,1.561 -2.409,1.042 -4.34,2.545 -5.79,4.505 -1.448,1.959 -2.277,4.248 -2.48,6.861 h 9.188 c 0.206,-1.758 0.909,-3.216 2.116,-4.38 1.203,-1.165 2.807,-1.745 4.807,-1.745 1.797,0 3.175,0.479 4.136,1.438 0.96,0.959 1.439,2.192 1.439,3.705 0,1.348 -0.388,2.462 -1.162,3.339 -0.777,0.877 -1.759,1.585 -2.942,2.115 -1.185,0.529 -2.819,1.142 -4.902,1.836 -2.694,0.901 -4.898,1.786 -6.614,2.668 -1.715,0.877 -3.177,2.151 -4.381,3.828 -1.206,1.672 -1.806,3.861 -1.806,6.555 0,3.714 1.336,6.646 4.01,8.789 2.675,2.147 6.22,3.216 10.63,3.216 4.573,0 8.218,-1.101 10.936,-3.307 2.716,-2.207 4.258,-5.143 4.625,-8.821 h -9.312 c -0.244,1.553 -0.9,2.828 -1.96,3.828 -1.064,1 -2.512,1.503 -4.35,1.503 -1.592,0 -2.878,-0.42 -3.861,-1.256 -0.979,-0.841 -1.468,-2.056 -1.468,-3.645 0,-1.266 0.377,-2.321 1.133,-3.158 0.756,-0.836 1.715,-1.52 2.878,-2.05 1.164,-0.53 2.747,-1.124 4.748,-1.777 2.777,-0.982 5.034,-1.9 6.77,-2.76 1.736,-0.853 3.216,-2.142 4.442,-3.855 C 1.042,11.119 1.654,8.871 1.654,6.094 1.654,3.893 1.104,1.859 0,0"
         style="fill:#091a37;fill-opacity:1;fill-rule:nonzero;stroke:none"
         id="path1418" />
    </g>
    <path
       d="m 49.087771,171.09867 h -3.046589 v -15.25764 h 3.046589 z"
       style="fill:#091a37;fill-opacity:1;fill-rule:nonzero;stroke:none;stroke-width:0.352778"
       id="path1420" />
    <g
       id="g1422"
       transform="matrix(0.35277777,0,0,-0.35277777,63.695452,157.15897)">
      <path
         d="m 0,0 c 3.552,-2.777 5.902,-6.555 7.044,-11.333 h -9.065 c -0.941,2.329 -2.401,4.166 -4.381,5.514 -1.983,1.347 -4.36,2.023 -7.138,2.023 -2.286,0 -4.349,-0.575 -6.187,-1.718 -1.839,-1.141 -3.269,-2.777 -4.287,-4.901 -1.024,-2.124 -1.533,-4.613 -1.533,-7.474 0,-2.818 0.509,-5.289 1.533,-7.413 1.018,-2.125 2.448,-3.755 4.287,-4.902 1.838,-1.142 3.901,-1.713 6.187,-1.713 2.778,0 5.155,0.672 7.138,2.024 1.98,1.347 3.44,3.184 4.381,5.513 H 7.044 C 5.902,-29.162 3.552,-32.939 0,-35.718 c -3.554,-2.777 -8.026,-4.161 -13.417,-4.161 -4.125,0 -7.77,0.928 -10.936,2.787 -3.165,1.855 -5.616,4.458 -7.352,7.811 -1.735,3.348 -2.601,7.144 -2.601,11.392 0,4.29 0.866,8.109 2.601,11.457 1.736,3.349 4.178,5.953 7.323,7.812 3.143,1.859 6.799,2.786 10.965,2.786 C -8.026,4.166 -3.554,2.777 0,0"
         style="fill:#091a37;fill-opacity:1;fill-rule:nonzero;stroke:none"
         id="path1424" />
    </g>
    <g
       id="g1426"
       transform="matrix(0.35277777,0,0,-0.35277777,76.229576,158.26105)">
      <path
         d="m 0,0 v -11.21 h 15.317 v -6.615 H 0 V -29.469 H 17.155 V -36.39 H -8.636 V 6.86 H 17.155 V 0 Z"
         style="fill:#091a37;fill-opacity:1;fill-rule:nonzero;stroke:none"
         id="path1428" />
    </g>
    <g
       id="g1430"
       transform="matrix(0.35277777,0,0,-0.35277777,97.834991,171.09852)">
      <path
         d="M 0,0 H -8.638 L -27.997,29.404 V 0 h -8.636 v 43.25 h 8.636 L -8.638,13.6 V 43.25 H 0 Z"
         style="fill:#091a37;fill-opacity:1;fill-rule:nonzero;stroke:none"
         id="path1432" />
    </g>
    <g
       id="g1434"
       transform="matrix(0.35277777,0,0,-0.35277777,112.51728,157.06217)">
      <path
         d="m 0,0 c 3.472,-2.59 5.699,-6.094 6.679,-10.507 h -9.068 c -0.856,1.965 -2.215,3.527 -4.072,4.687 -1.859,1.165 -4.055,1.75 -6.587,1.75 -2.492,0 -4.696,-0.576 -6.617,-1.718 -1.919,-1.142 -3.41,-2.777 -4.472,-4.901 -1.062,-2.124 -1.592,-4.614 -1.592,-7.474 0,-4.531 1.215,-8.066 3.645,-10.598 2.431,-2.53 5.749,-3.801 9.956,-3.801 3.102,0 5.768,0.923 7.994,2.76 2.225,1.836 3.666,4.39 4.32,7.656 h -14.643 v 6.19 H 7.414 v -8.332 c -0.612,-2.86 -1.809,-5.496 -3.583,-7.903 -1.777,-2.413 -4.104,-4.339 -6.985,-5.788 -2.88,-1.453 -6.178,-2.174 -9.894,-2.174 -4.249,0 -7.994,0.927 -11.242,2.787 -3.246,1.854 -5.758,4.449 -7.535,7.779 -1.778,3.33 -2.663,7.135 -2.663,11.424 0,4.29 0.885,8.095 2.663,11.425 1.777,3.33 4.278,5.934 7.505,7.811 3.225,1.878 6.962,2.819 11.21,2.819 C -7.841,3.892 -3.472,2.595 0,0"
         style="fill:#091a37;fill-opacity:1;fill-rule:nonzero;stroke:none"
         id="path1436" />
    </g>
    <path
       d="m 120.7514,171.09867 h -3.04659 v -15.25764 h 3.04659 z"
       style="fill:#091a37;fill-opacity:1;fill-rule:nonzero;stroke:none;stroke-width:0.352778"
       id="path1438" />
    <g
       id="g1440"
       transform="matrix(0.35277777,0,0,-0.35277777,136.81552,171.09852)">
      <path
         d="M 0,0 H -8.638 L -27.997,29.404 V 0 h -8.636 v 43.25 h 8.636 L -8.638,13.6 V 43.25 H 0 Z"
         style="fill:#091a37;fill-opacity:1;fill-rule:nonzero;stroke:none"
         id="path1442" />
    </g>
    <g
       id="g1444"
       transform="matrix(0.35277777,0,0,-0.35277777,143.00293,158.26105)">
      <path
         d="m 0,0 v -11.21 h 15.316 v -6.615 H 0 V -29.469 H 17.155 V -36.39 H -8.636 V 6.86 H 17.155 V 0 Z"
         style="fill:#091a37;fill-opacity:1;fill-rule:nonzero;stroke:none"
         id="path1446" />
    </g>
    <g
       id="g1448"
       transform="matrix(0.35277777,0,0,-0.35277777,154.73141,158.26105)">
      <path
         d="m 0,0 v -11.21 h 15.316 v -6.615 H 0 V -29.469 H 17.155 V -36.39 H -8.636 V 6.86 H 17.155 V 0 Z"
         style="fill:#091a37;fill-opacity:1;fill-rule:nonzero;stroke:none"
         id="path1450" />
    </g>
    <g
       id="g1452"
       transform="matrix(0.35277777,0,0,-0.35277777,166.4599,163.05868)">
      <path
         d="m 0,0 h 7.108 c 4.94,0 7.412,2.184 7.412,6.556 0,2.083 -0.603,3.704 -1.807,4.869 C 11.507,12.59 9.639,13.17 7.108,13.17 H 0 Z M 13.907,-22.79 3.799,-5.942 H 0 V -22.79 h -8.636 v 43.25 h 16.48 c 5.022,0 8.85,-1.224 11.486,-3.677 2.633,-2.448 3.951,-5.674 3.951,-9.675 0,-3.271 -0.909,-6.006 -2.727,-8.213 -1.818,-2.202 -4.44,-3.673 -7.87,-4.409 l 10.78,-17.276 z"
         style="fill:#091a37;fill-opacity:1;fill-rule:nonzero;stroke:none"
         id="path1454" />
    </g>
    <path
       d="m 180.08368,171.09867 h -3.04659 v -15.25764 h 3.04659 z"
       style="fill:#091a37;fill-opacity:1;fill-rule:nonzero;stroke:none;stroke-width:0.352778"
       id="path1456" />
    <g
       id="g1458"
       transform="matrix(0.35277777,0,0,-0.35277777,196.14766,171.09852)">
      <path
         d="M 0,0 H -8.638 L -27.997,29.404 V 0 h -8.636 v 43.25 h 8.636 L -8.638,13.6 V 43.25 H 0 Z"
         style="fill:#091a37;fill-opacity:1;fill-rule:nonzero;stroke:none"
         id="path1460" />
    </g>
    <g
       id="g1462"
       transform="matrix(0.35277777,0,0,-0.35277777,210.83102,157.06217)">
      <path
         d="M 0,0 C 3.472,-2.59 5.698,-6.094 6.679,-10.507 H -2.39 c -0.856,1.965 -2.214,3.527 -4.072,4.687 -1.858,1.165 -4.054,1.75 -6.587,1.75 -2.492,0 -4.695,-0.576 -6.616,-1.718 -1.919,-1.142 -3.41,-2.777 -4.473,-4.901 -1.061,-2.124 -1.591,-4.614 -1.591,-7.474 0,-4.531 1.214,-8.066 3.645,-10.598 2.43,-2.53 5.749,-3.801 9.956,-3.801 3.102,0 5.767,0.923 7.994,2.76 2.225,1.836 3.665,4.39 4.319,7.656 h -14.643 v 6.19 H 7.414 v -8.332 c -0.612,-2.86 -1.81,-5.496 -3.584,-7.903 -1.776,-2.413 -4.104,-4.339 -6.984,-5.788 -2.88,-1.453 -6.179,-2.174 -9.895,-2.174 -4.248,0 -7.994,0.927 -11.242,2.787 -3.245,1.854 -5.758,4.449 -7.534,7.779 -1.778,3.33 -2.663,7.135 -2.663,11.424 0,4.29 0.885,8.095 2.663,11.425 1.776,3.33 4.277,5.934 7.505,7.811 3.224,1.878 6.962,2.819 11.21,2.819 C -7.841,3.892 -3.472,2.595 0,0"
         style="fill:#091a37;fill-opacity:1;fill-rule:nonzero;stroke:none"
         id="path1464" />
    </g>
    <g
       id="g1466"
       transform="matrix(0.35277777,0,0,-0.35277777,53.714169,178.03107)">
      <path
         d="m 0,0 c 2.02,-1.578 3.355,-3.729 4.007,-6.445 h -5.158 c -0.534,1.323 -1.363,2.368 -2.49,3.136 -1.127,0.765 -2.48,1.148 -4.059,1.148 -1.301,0 -2.474,-0.324 -3.519,-0.976 -1.046,-0.651 -1.859,-1.578 -2.438,-2.784 -0.581,-1.21 -0.872,-2.627 -0.872,-4.254 0,-1.602 0.291,-3.009 0.872,-4.215 0.579,-1.206 1.392,-2.136 2.438,-2.788 1.045,-0.648 2.218,-0.975 3.519,-0.975 1.579,0 2.932,0.385 4.059,1.151 1.127,0.765 1.956,1.813 2.49,3.136 H 4.007 C 3.355,-16.585 2.02,-18.732 0,-20.312 c -2.021,-1.582 -4.565,-2.371 -7.631,-2.371 -2.345,0 -4.418,0.532 -6.22,1.586 -1.798,1.058 -3.193,2.536 -4.18,4.443 -0.988,1.906 -1.481,4.063 -1.481,6.479 0,2.441 0.493,4.613 1.481,6.518 0.987,1.903 2.375,3.385 4.163,4.439 1.789,1.059 3.868,1.586 6.237,1.586 C -4.565,2.368 -2.021,1.579 0,0"
         style="fill:#091a37;fill-opacity:1;fill-rule:nonzero;stroke:none"
         id="path1468" />
    </g>
    <g
       id="g1470"
       transform="matrix(0.35277777,0,0,-0.35277777,62.662801,179.09974)">
      <path
         d="m 0,0 c -1.093,-0.651 -1.946,-1.586 -2.561,-2.806 -0.615,-1.22 -0.923,-2.643 -0.923,-4.267 0,-1.626 0.308,-3.05 0.923,-4.27 0.615,-1.22 1.468,-2.154 2.561,-2.805 1.091,-0.649 2.357,-0.976 3.798,-0.976 1.439,0 2.706,0.327 3.797,0.976 1.093,0.651 1.946,1.585 2.561,2.805 0.615,1.22 0.924,2.644 0.924,4.27 0,1.624 -0.309,3.047 -0.924,4.267 C 9.541,-1.586 8.688,-0.651 7.595,0 6.504,0.647 5.237,0.976 3.798,0.976 2.357,0.976 1.091,0.647 0,0 m 10.052,3.901 c 1.868,-1.068 3.344,-2.56 4.424,-4.477 1.081,-1.916 1.62,-4.084 1.62,-6.497 0,-2.416 -0.539,-4.587 -1.62,-6.518 -1.08,-1.927 -2.556,-3.426 -4.424,-4.494 -1.869,-1.068 -3.955,-1.602 -6.254,-1.602 -2.3,0 -4.384,0.534 -6.254,1.602 -1.87,1.068 -3.345,2.567 -4.425,4.494 -1.081,1.931 -1.62,4.102 -1.62,6.518 0,2.413 0.539,4.581 1.62,6.497 1.08,1.917 2.555,3.409 4.425,4.477 1.87,1.069 3.954,1.603 6.254,1.603 2.299,0 4.385,-0.534 6.254,-1.603"
         style="fill:#091a37;fill-opacity:1;fill-rule:nonzero;stroke:none"
         id="path1472" />
    </g>
    <g
       id="g1474"
       transform="matrix(0.35277777,0,0,-0.35277777,82.647097,177.37927)">
      <path
         d="m 0,0 v -24.32 h -4.877 v 16.968 l -6.237,-16.968 h -4.251 l -6.237,16.899 V -24.32 h -4.912 V 0 h 5.958 L -13.17,-18.292 -5.923,0 Z"
         style="fill:#091a37;fill-opacity:1;fill-rule:nonzero;stroke:none"
         id="path1476" />
    </g>
    <g
       id="g1478"
       transform="matrix(0.35277777,0,0,-0.35277777,92.480954,180.02267)">
      <path
         d="m 0,0 c 0,1.234 -0.336,2.172 -1.01,2.823 -0.674,0.652 -1.777,0.975 -3.31,0.975 h -3.52 v -7.559 h 3.52 C -1.441,-3.761 0,-2.506 0,0 m -7.84,-7.7 v -9.127 h -4.911 V 7.772 h 8.954 c 2.902,0 5.091,-0.7 6.568,-2.091 C 4.244,4.288 4.982,2.392 4.982,0 4.982,-2.344 4.222,-4.215 2.7,-5.607 1.179,-7 -0.987,-7.7 -3.797,-7.7 Z"
         style="fill:#091a37;fill-opacity:1;fill-rule:nonzero;stroke:none"
         id="path1480" />
    </g>
    <g
       id="g1482"
       transform="matrix(0.35277777,0,0,-0.35277777,103.0984,182.89831)">
      <path
         d="M 0,0 -3.624,10.382 -7.247,0 Z m 1.323,-3.729 h -9.859 l -1.742,-4.947 h -5.191 l 9.058,24.321 h 5.609 L 8.222,-8.676 H 3.031 Z"
         style="fill:#091a37;fill-opacity:1;fill-rule:nonzero;stroke:none"
         id="path1484" />
    </g>
    <g
       id="g1486"
       transform="matrix(0.35277777,0,0,-0.35277777,117.88924,185.95894)">
      <path
         d="M 0,0 H -4.913 L -15.924,16.724 V 0 h -4.911 v 24.6 h 4.911 L -4.913,7.734 V 24.6 H 0 Z"
         style="fill:#091a37;fill-opacity:1;fill-rule:nonzero;stroke:none"
         id="path1488" />
    </g>
    <g
       id="g1490"
       transform="matrix(0.35277777,0,0,-0.35277777,130.06212,177.28074)">
      <path
         d="M 0,0 -8.328,-15.993 V -24.6 h -4.945 v 8.607 L -21.636,0 h 5.645 L -10.767,-10.768 -5.539,0 Z"
         style="fill:#091a37;fill-opacity:1;fill-rule:nonzero;stroke:none"
         id="path1492" />
    </g>
    <path
       d="m 37.272185,182.07746 h -73.825804 v -0.95144 h 73.825804 z"
       style="fill:#091a37;fill-opacity:1;fill-rule:nonzero;stroke:none;stroke-width:0.352778"
       id="path1494" />
    <path
       d="m 213.44658,182.07746 h -73.82616 v -0.95144 h 73.82616 z"
       style="fill:#091a37;fill-opacity:1;fill-rule:nonzero;stroke:none;stroke-width:0.352778"
       id="path1496" />
    <g
       id="g1498"
       transform="matrix(0.35277777,0,0,-0.35277777,116.84054,122.70182)">
      <path
         d="M 0,0 V -48.069 H -200.406 V 210.746 H -4.801 v -48.07 H -140.862 V 106.479 H -20.717 V 59.883 H -140.862 V 0 Z"
         style="fill:#091a37;fill-opacity:1;fill-rule:nonzero;stroke:none"
         id="path1500" />
    </g>
    <g
       id="g1502"
       transform="matrix(0.35277777,0,0,-0.35277777,150.50979,135.15858)">
      <path
         d="m 0,0 c -21.322,11.455 -38.07,27.353 -50.281,47.691 -12.193,20.34 -18.298,43.326 -18.298,68.957 0,25.632 6.105,48.618 18.298,68.957 12.211,20.34 28.959,36.237 50.281,47.692 21.322,11.455 45.29,17.201 71.924,17.201 22.419,0 42.701,-3.951 60.81,-11.833 18.128,-7.901 33.344,-19.243 45.669,-34.025 l -38.448,-35.499 c -17.522,20.207 -39.204,30.32 -65.082,30.32 -16.029,0 -30.32,-3.516 -42.89,-10.529 C 19.413,181.9 9.621,172.109 2.589,159.539 -4.442,146.968 -7.939,132.659 -7.939,116.648 c 0,-16.029 3.497,-30.319 10.528,-42.89 7.032,-12.57 16.824,-22.362 29.394,-29.394 12.57,-7.031 26.861,-10.528 42.89,-10.528 25.878,0 47.56,10.207 65.082,30.679 L 178.403,29.016 C 166.078,13.988 150.786,2.514 132.545,-5.368 114.304,-13.251 93.965,-17.201 71.546,-17.201 45.158,-17.201 21.322,-11.474 0,0"
         style="fill:#091a37;fill-opacity:1;fill-rule:nonzero;stroke:none"
         id="path1504" />
    </g>
    <g
       id="g1510"
       transform="matrix(0.35277777,0,0,-0.35277777,-36.553548,48.355285)">
      <path
         d="M 0,0 V -258.815 H 59.902 V -48.069 H 195.605 V 0 Z"
         style="fill:#091a37;fill-opacity:1;fill-rule:nonzero;stroke:none"
         id="path1512" />
    </g>
    <path
       d="M -2.1222259,102.08962 H 26.836596 V 85.138295 h -39.342483 z"
       style="fill:#ed1c24;fill-opacity:1;fill-rule:nonzero;stroke:none;stroke-width:0.352778"
       id="path1508" />
  </g>
</svg>
