<?xml version="1.0" encoding="UTF-8" standalone="no"?>
<svg
   xmlns:dc="http://purl.org/dc/elements/1.1/"
   xmlns:cc="http://creativecommons.org/ns#"
   xmlns:rdf="http://www.w3.org/1999/02/22-rdf-syntax-ns#"
   xmlns:svg="http://www.w3.org/2000/svg"
   xmlns="http://www.w3.org/2000/svg"
   xmlns:sodipodi="http://sodipodi.sourceforge.net/DTD/sodipodi-0.dtd"
   xmlns:inkscape="http://www.inkscape.org/namespaces/inkscape"
   version="1.1"
   id="svg2"
   xml:space="preserve"
   width="793.70135"
   height="960"
   viewBox="0 0 793.70135 960"
   sodipodi:docname="FEC_Guidelines_CS6_Original Import.svg"
   inkscape:version="1.0.2-2 (e86c870879, 2021-01-15)"><metadata
     id="metadata8"><rdf:RDF><cc:Work
         rdf:about=""><dc:format>image/svg+xml</dc:format><dc:type
           rdf:resource="http://purl.org/dc/dcmitype/StillImage" /><dc:title></dc:title></cc:Work></rdf:RDF></metadata><defs
     id="defs6"><clipPath
       clipPathUnits="userSpaceOnUse"
       id="clipPath34"><path
         d="M 0,720 H 595.276 V 0 H 0 Z"
         id="path32" /></clipPath></defs><sodipodi:namedview
     pagecolor="#ffffff"
     bordercolor="#666666"
     borderopacity="1"
     objecttolerance="10"
     gridtolerance="10"
     guidetolerance="10"
     inkscape:pageopacity="0"
     inkscape:pageshadow="2"
     inkscape:window-width="1920"
     inkscape:window-height="1017"
     id="namedview4"
     showgrid="false"
     inkscape:zoom="1.7708333"
     inkscape:cx="516.67184"
     inkscape:cy="684.26173"
     inkscape:window-x="-8"
     inkscape:window-y="-8"
     inkscape:window-maximized="1"
     inkscape:current-layer="g10" /><g
     id="g10"
     inkscape:groupmode="layer"
     inkscape:label="FEC_Guidelines_CS6_Re"
     transform="matrix(1.3333333,0,0,-1.3333333,0,960)"><path
       d="M 283.792,488.652 H 26.079 v 160.316 h 257.713 z"
       style="fill:#ffffff;fill-opacity:1;fill-rule:nonzero;stroke:#c7c7c6;stroke-width:1;stroke-linecap:butt;stroke-linejoin:miter;stroke-miterlimit:10;stroke-dasharray:none;stroke-opacity:1"
       id="path12" /><path
       d="M 569.195,488.652 H 311.483 v 160.316 h 257.712 z"
       style="fill:#001a41;fill-opacity:1;fill-rule:nonzero;stroke:none"
       id="path14" /><path
       d="M 283.792,284.482 H 26.079 v 160.317 h 257.713 z"
       style="fill:#e30613;fill-opacity:1;fill-rule:nonzero;stroke:none"
       id="path16" /><path
       d="M 569.195,284.482 H 311.483 v 160.317 h 257.712 z"
       style="fill:#1d1d1b;fill-opacity:1;fill-rule:nonzero;stroke:none"
       id="path18" /><path
       d="M 282.94494,74.419235 H 25.231941 V 234.73524 H 282.94494 Z"
       style="fill:#001a41;fill-opacity:1;fill-rule:nonzero;stroke:none"
       id="path20" /><path
       d="M 569.195,71.031 H 311.483 v 160.316 h 257.712 z"
       style="fill:#e30613;fill-opacity:1;fill-rule:nonzero;stroke:none"
       id="path22" /><g
       id="g24"
       transform="translate(363.4805,124.9629)"><path
         d="m 0,0 v -1.61 h -4.271 v -2.718 h 3.422 V -5.88 h -3.422 v -4.27 H -6.298 V 0 Z"
         style="fill:#ffffff;fill-opacity:1;fill-rule:nonzero;stroke:none"
         id="path26" /></g><g
       id="g28"><g
         id="g30"
         clip-path="url(#clipPath34)"><g
           id="g36"
           transform="translate(367.6934,122.835)"><path
             d="m 0,0 c -0.45,-0.269 -0.803,-0.654 -1.056,-1.157 -0.255,-0.504 -0.381,-1.09 -0.381,-1.761 0,-0.672 0.126,-1.259 0.381,-1.762 0.253,-0.503 0.606,-0.888 1.056,-1.158 0.451,-0.267 0.974,-0.401 1.567,-0.401 0.595,0 1.118,0.134 1.568,0.401 0.45,0.27 0.803,0.655 1.056,1.158 0.254,0.503 0.381,1.09 0.381,1.762 0,0.671 -0.127,1.257 -0.381,1.761 C 3.938,-0.654 3.585,-0.269 3.135,0 2.685,0.269 2.162,0.403 1.567,0.403 0.974,0.403 0.451,0.269 0,0 M 4.148,1.61 C 4.92,1.17 5.528,0.554 5.975,-0.237 6.42,-1.028 6.643,-1.921 6.643,-2.918 6.643,-3.915 6.42,-4.812 5.975,-5.607 5.528,-6.402 4.92,-7.021 4.148,-7.462 3.377,-7.902 2.517,-8.123 1.567,-8.123 c -0.949,0 -1.809,0.221 -2.58,0.661 -0.771,0.441 -1.381,1.06 -1.826,1.855 -0.446,0.795 -0.668,1.692 -0.668,2.689 0,0.997 0.222,1.89 0.668,2.681 0.445,0.791 1.055,1.407 1.826,1.847 0.771,0.441 1.631,0.661 2.58,0.661 0.95,0 1.81,-0.22 2.581,-0.661"
             style="fill:#ffffff;fill-opacity:1;fill-rule:nonzero;stroke:none"
             id="path38" /></g><g
           id="g40"
           transform="translate(378.001,120.1611)"><path
             d="m 0,0 h 1.668 c 1.159,0 1.739,0.513 1.739,1.538 0,0.489 -0.141,0.87 -0.424,1.144 C 2.7,2.954 2.262,3.091 1.668,3.091 H 0 Z M 3.264,-5.349 0.891,-1.395 H 0 V -5.349 H -2.027 V 4.802 H 1.84 C 3.019,4.802 3.917,4.515 4.536,3.938 5.154,3.364 5.463,2.607 5.463,1.668 5.463,0.9 5.25,0.259 4.823,-0.26 4.396,-0.776 3.781,-1.121 2.977,-1.294 l 2.529,-4.055 z"
             style="fill:#ffffff;fill-opacity:1;fill-rule:nonzero;stroke:none"
             id="path42" /></g><g
           id="g44"
           transform="translate(387.0713,123.3525)"><path
             d="M 0,0 V -2.631 H 3.595 V -4.183 H 0 V -6.916 H 4.026 V -8.54 H -2.026 V 1.61 H 4.026 V 0 Z"
             style="fill:#ffffff;fill-opacity:1;fill-rule:nonzero;stroke:none"
             id="path46" /></g><g
           id="g48"
           transform="translate(401.4443,114.8125)"><path
             d="M 0,0 H -2.027 L -6.57,6.901 V 0 H -8.598 V 10.15 H -6.57 L -2.027,3.191 V 10.15 H 0 Z"
             style="fill:#ffffff;fill-opacity:1;fill-rule:nonzero;stroke:none"
             id="path50" /></g><g
           id="g52"
           transform="translate(410.0703,116.1572)"><path
             d="m 0,0 c -0.259,-0.437 -0.642,-0.786 -1.15,-1.05 -0.508,-0.263 -1.126,-0.395 -1.855,-0.395 -0.719,0 -1.361,0.122 -1.927,0.366 -0.565,0.245 -1.018,0.598 -1.358,1.058 -0.34,0.459 -0.534,0.997 -0.582,1.61 h 2.156 c 0.048,-0.413 0.214,-0.755 0.496,-1.028 0.283,-0.274 0.659,-0.41 1.129,-0.41 0.422,0 0.745,0.113 0.971,0.337 0.224,0.226 0.338,0.515 0.338,0.87 0,0.316 -0.092,0.578 -0.274,0.784 -0.181,0.206 -0.412,0.372 -0.69,0.496 -0.278,0.125 -0.661,0.268 -1.15,0.431 C -4.528,3.28 -5.046,3.488 -5.448,3.695 -5.851,3.901 -6.194,4.2 -6.477,4.594 -6.76,4.986 -6.9,5.499 -6.9,6.132 c 0,0.872 0.313,1.559 0.941,2.062 0.627,0.504 1.459,0.755 2.494,0.755 1.073,0 1.929,-0.259 2.567,-0.776 0.637,-0.518 0.999,-1.207 1.085,-2.07 h -2.185 c -0.058,0.365 -0.211,0.664 -0.46,0.898 -0.25,0.235 -0.59,0.353 -1.021,0.353 -0.374,0 -0.675,-0.098 -0.906,-0.294 -0.23,-0.198 -0.344,-0.483 -0.344,-0.856 0,-0.297 0.087,-0.545 0.265,-0.741 0.178,-0.196 0.402,-0.357 0.676,-0.482 0.273,-0.124 0.644,-0.263 1.114,-0.417 0.652,-0.23 1.182,-0.446 1.589,-0.647 0.407,-0.2 0.755,-0.503 1.042,-0.904 C 0.245,2.609 0.389,2.082 0.389,1.43 0.389,0.913 0.259,0.437 0,0"
             style="fill:#ffffff;fill-opacity:1;fill-rule:nonzero;stroke:none"
             id="path54" /></g><path
           d="m 414.156,114.813 h -2.027 v 10.15 h 2.027 z"
           style="fill:#ffffff;fill-opacity:1;fill-rule:nonzero;stroke:none"
           id="path56" /><g
           id="g58"
           transform="translate(423.874,124.0859)"><path
             d="m 0,0 c 0.833,-0.651 1.385,-1.538 1.653,-2.66 h -2.128 c -0.22,0.547 -0.563,0.978 -1.028,1.294 -0.465,0.316 -1.023,0.475 -1.675,0.475 -0.537,0 -1.02,-0.135 -1.452,-0.403 -0.432,-0.268 -0.767,-0.652 -1.006,-1.15 -0.24,-0.498 -0.36,-1.083 -0.36,-1.754 0,-0.661 0.12,-1.241 0.36,-1.74 0.239,-0.499 0.574,-0.881 1.006,-1.151 0.432,-0.267 0.915,-0.401 1.452,-0.401 0.652,0 1.21,0.157 1.675,0.474 0.465,0.317 0.808,0.747 1.028,1.294 H 1.653 C 1.385,-6.844 0.833,-7.73 0,-8.383 c -0.834,-0.651 -1.884,-0.976 -3.149,-0.976 -0.968,0 -1.824,0.217 -2.567,0.654 -0.742,0.435 -1.317,1.046 -1.724,1.833 -0.409,0.786 -0.612,1.677 -0.612,2.674 0,1.007 0.203,1.903 0.612,2.688 0.407,0.786 0.98,1.398 1.717,1.834 0.739,0.436 1.596,0.654 2.574,0.654 C -1.884,0.978 -0.834,0.651 0,0"
             style="fill:#ffffff;fill-opacity:1;fill-rule:nonzero;stroke:none"
             id="path60" /></g><g
           id="g62"
           transform="translate(432.2119,123.3525)"><path
             d="M 0,0 V -2.631 H 3.595 V -4.183 H 0 V -6.916 H 4.026 V -8.54 H -2.026 V 1.61 H 4.026 V 0 Z"
             style="fill:#ffffff;fill-opacity:1;fill-rule:nonzero;stroke:none"
             id="path64" /></g><g
           id="g66"
           transform="translate(446.585,114.8125)"><path
             d="M 0,0 H -2.027 L -6.57,6.901 V 0 H -8.597 V 10.15 H -6.57 L -2.027,3.191 V 10.15 H 0 Z"
             style="fill:#ffffff;fill-opacity:1;fill-rule:nonzero;stroke:none"
             id="path68" /></g><g
           id="g70"
           transform="translate(456.3525,124.1504)"><path
             d="m 0,0 c 0.815,-0.608 1.338,-1.431 1.567,-2.466 h -2.128 c -0.201,0.461 -0.519,0.827 -0.956,1.1 -0.435,0.273 -0.951,0.411 -1.546,0.411 -0.583,0 -1.101,-0.136 -1.552,-0.403 -0.45,-0.269 -0.8,-0.653 -1.049,-1.151 -0.25,-0.498 -0.374,-1.083 -0.374,-1.754 0,-1.063 0.285,-1.893 0.855,-2.487 0.571,-0.594 1.35,-0.892 2.337,-0.892 0.728,0 1.354,0.217 1.876,0.648 0.522,0.431 0.861,1.03 1.014,1.797 h -3.437 v 1.452 H 1.74 V -5.7 C 1.597,-6.371 1.315,-6.99 0.899,-7.555 0.482,-8.121 -0.064,-8.573 -0.74,-8.913 c -0.676,-0.341 -1.45,-0.511 -2.323,-0.511 -0.997,0 -1.875,0.218 -2.637,0.654 -0.762,0.436 -1.352,1.044 -1.769,1.826 -0.417,0.782 -0.625,1.674 -0.625,2.681 0,1.007 0.208,1.9 0.625,2.682 0.417,0.781 1.004,1.393 1.762,1.833 0.757,0.44 1.634,0.661 2.631,0.661 C -1.84,0.913 -0.814,0.608 0,0"
             style="fill:#ffffff;fill-opacity:1;fill-rule:nonzero;stroke:none"
             id="path72" /></g><path
           d="m 461.83,114.813 h -2.026 v 10.15 h 2.026 z"
           style="fill:#ffffff;fill-opacity:1;fill-rule:nonzero;stroke:none"
           id="path74" /><g
           id="g76"
           transform="translate(472.5176,114.8125)"><path
             d="M 0,0 H -2.027 L -6.571,6.901 V 0 h -2.027 v 10.15 h 2.027 L -2.027,3.191 V 10.15 H 0 Z"
             style="fill:#ffffff;fill-opacity:1;fill-rule:nonzero;stroke:none"
             id="path78" /></g><g
           id="g80"
           transform="translate(476.6328,123.3525)"><path
             d="M 0,0 V -2.631 H 3.595 V -4.183 H 0 V -6.916 H 4.026 V -8.54 H -2.026 V 1.61 H 4.026 V 0 Z"
             style="fill:#ffffff;fill-opacity:1;fill-rule:nonzero;stroke:none"
             id="path82" /></g><g
           id="g84"
           transform="translate(484.4355,123.3525)"><path
             d="M 0,0 V -2.631 H 3.595 V -4.183 H 0 V -6.916 H 4.026 V -8.54 H -2.026 V 1.61 H 4.026 V 0 Z"
             style="fill:#ffffff;fill-opacity:1;fill-rule:nonzero;stroke:none"
             id="path86" /></g><g
           id="g88"
           transform="translate(492.2383,120.1611)"><path
             d="m 0,0 h 1.668 c 1.159,0 1.739,0.513 1.739,1.538 0,0.489 -0.141,0.87 -0.424,1.144 C 2.7,2.954 2.262,3.091 1.668,3.091 H 0 Z M 3.264,-5.349 0.892,-1.395 H 0 V -5.349 H -2.027 V 4.802 H 1.841 C 3.02,4.802 3.918,4.515 4.536,3.938 5.154,3.364 5.464,2.607 5.464,1.668 5.464,0.9 5.25,0.259 4.823,-0.26 4.396,-0.776 3.781,-1.121 2.977,-1.294 l 2.53,-4.055 z"
             style="fill:#ffffff;fill-opacity:1;fill-rule:nonzero;stroke:none"
             id="path90" /></g><path
           d="m 501.302,114.813 h -2.027 v 10.15 h 2.027 z"
           style="fill:#ffffff;fill-opacity:1;fill-rule:nonzero;stroke:none"
           id="path92" /><g
           id="g94"
           transform="translate(511.9883,114.8125)"><path
             d="M 0,0 H -2.027 L -6.571,6.901 V 0 h -2.027 v 10.15 h 2.027 L -2.027,3.191 V 10.15 H 0 Z"
             style="fill:#ffffff;fill-opacity:1;fill-rule:nonzero;stroke:none"
             id="path96" /></g><g
           id="g98"
           transform="translate(521.7559,124.1504)"><path
             d="m 0,0 c 0.814,-0.608 1.338,-1.431 1.567,-2.466 h -2.128 c -0.201,0.461 -0.519,0.827 -0.956,1.1 -0.435,0.273 -0.951,0.411 -1.546,0.411 -0.583,0 -1.101,-0.136 -1.552,-0.403 -0.45,-0.269 -0.8,-0.653 -1.049,-1.151 -0.25,-0.498 -0.374,-1.083 -0.374,-1.754 0,-1.063 0.285,-1.893 0.855,-2.487 0.571,-0.594 1.35,-0.892 2.337,-0.892 0.728,0 1.354,0.217 1.876,0.648 0.522,0.431 0.861,1.03 1.014,1.797 h -3.437 v 1.452 H 1.74 V -5.7 C 1.597,-6.371 1.315,-6.99 0.899,-7.555 0.482,-8.121 -0.064,-8.573 -0.74,-8.913 c -0.676,-0.341 -1.45,-0.511 -2.323,-0.511 -0.996,0 -1.875,0.218 -2.637,0.654 -0.762,0.436 -1.352,1.044 -1.769,1.826 -0.417,0.782 -0.625,1.674 -0.625,2.681 0,1.007 0.208,1.9 0.625,2.682 0.417,0.781 1.004,1.393 1.762,1.833 0.757,0.44 1.634,0.661 2.631,0.661 C -1.84,0.913 -0.814,0.608 0,0"
             style="fill:#ffffff;fill-opacity:1;fill-rule:nonzero;stroke:none"
             id="path100" /></g><g
           id="g102"
           transform="translate(417.2334,110.2012)"><path
             d="m 0,0 c 0.475,-0.371 0.788,-0.876 0.94,-1.513 h -1.21 c -0.126,0.311 -0.32,0.556 -0.584,0.736 -0.265,0.179 -0.583,0.269 -0.953,0.269 -0.305,0 -0.581,-0.076 -0.826,-0.228 -0.245,-0.154 -0.436,-0.371 -0.572,-0.655 -0.136,-0.283 -0.204,-0.616 -0.204,-0.998 0,-0.376 0.068,-0.706 0.204,-0.989 0.136,-0.283 0.327,-0.501 0.572,-0.654 0.245,-0.152 0.521,-0.229 0.826,-0.229 0.37,0 0.688,0.091 0.953,0.27 0.264,0.179 0.458,0.426 0.584,0.736 H 0.94 C 0.788,-3.893 0.475,-4.396 0,-4.768 c -0.474,-0.371 -1.071,-0.556 -1.79,-0.556 -0.551,0 -1.037,0.125 -1.46,0.372 -0.423,0.249 -0.75,0.596 -0.981,1.043 -0.232,0.447 -0.348,0.954 -0.348,1.52 0,0.574 0.116,1.083 0.348,1.531 0.231,0.446 0.557,0.794 0.977,1.042 0.42,0.248 0.907,0.372 1.464,0.372 C -1.071,0.556 -0.474,0.37 0,0"
             style="fill:#ffffff;fill-opacity:1;fill-rule:nonzero;stroke:none"
             id="path104" /></g><g
           id="g106"
           transform="translate(423.1865,109.4893)"><path
             d="m 0,0 c -0.256,-0.152 -0.456,-0.372 -0.601,-0.658 -0.144,-0.286 -0.216,-0.62 -0.216,-1.001 0,-0.382 0.072,-0.716 0.216,-1.003 0.145,-0.286 0.345,-0.505 0.601,-0.658 0.256,-0.152 0.554,-0.229 0.892,-0.229 0.337,0 0.634,0.077 0.89,0.229 0.257,0.153 0.457,0.372 0.602,0.658 0.144,0.287 0.217,0.621 0.217,1.003 0,0.381 -0.073,0.715 -0.217,1.001 C 2.239,-0.372 2.039,-0.152 1.782,0 1.526,0.152 1.229,0.229 0.892,0.229 0.554,0.229 0.256,0.152 0,0 M 2.359,0.916 C 2.798,0.665 3.145,0.315 3.397,-0.135 3.651,-0.584 3.778,-1.093 3.778,-1.659 3.778,-2.227 3.651,-2.736 3.397,-3.189 3.145,-3.642 2.798,-3.993 2.359,-4.244 1.921,-4.495 1.432,-4.62 0.892,-4.62 c -0.54,0 -1.03,0.125 -1.468,0.376 -0.439,0.251 -0.785,0.602 -1.038,1.055 -0.254,0.453 -0.381,0.962 -0.381,1.53 0,0.566 0.127,1.075 0.381,1.524 0.253,0.45 0.599,0.8 1.038,1.051 0.438,0.251 0.928,0.376 1.468,0.376 0.54,0 1.029,-0.125 1.467,-0.376"
             style="fill:#ffffff;fill-opacity:1;fill-rule:nonzero;stroke:none"
             id="path108" /></g><g
           id="g110"
           transform="translate(436.4814,110.6348)"><path
             d="m 0,0 v -5.708 h -1.145 v 3.982 l -1.463,-3.982 h -0.998 l -1.463,3.966 V -5.708 H -6.223 V 0 h 1.399 l 1.733,-4.293 1.7,4.293 z"
             style="fill:#ffffff;fill-opacity:1;fill-rule:nonzero;stroke:none"
             id="path112" /></g><g
           id="g114"
           transform="translate(443.0234,108.876)"><path
             d="m 0,0 c 0,0.289 -0.079,0.51 -0.237,0.662 -0.159,0.153 -0.417,0.23 -0.777,0.23 H -1.84 v -1.775 h 0.826 C -0.338,-0.883 0,-0.588 0,0 m -1.84,-1.808 v -2.141 h -1.152 v 5.773 h 2.101 C -0.21,1.824 0.304,1.659 0.65,1.333 0.996,1.006 1.169,0.562 1.169,0 1.169,-0.55 0.991,-0.989 0.634,-1.316 0.276,-1.644 -0.231,-1.808 -0.891,-1.808 Z"
             style="fill:#ffffff;fill-opacity:1;fill-rule:nonzero;stroke:none"
             id="path116" /></g><g
           id="g118"
           transform="translate(450.0869,106.9629)"><path
             d="M 0,0 -0.851,2.437 -1.701,0 Z m 0.311,-0.875 h -2.315 l -0.408,-1.161 h -1.219 l 2.126,5.708 h 1.317 L 1.93,-2.036 H 0.711 Z"
             style="fill:#ffffff;fill-opacity:1;fill-rule:nonzero;stroke:none"
             id="path120" /></g><g
           id="g122"
           transform="translate(459.9268,104.9268)"><path
             d="M 0,0 H -1.153 L -3.737,3.925 V 0 H -4.89 v 5.773 h 1.153 L -1.153,1.815 V 5.773 H 0 Z"
             style="fill:#ffffff;fill-opacity:1;fill-rule:nonzero;stroke:none"
             id="path124" /></g><g
           id="g126"
           transform="translate(468.0244,110.7002)"><path
             d="m 0,0 -1.954,-3.754 v -2.019 h -1.161 v 2.019 L -5.077,0 h 1.324 L -2.526,-2.527 -1.3,0 Z"
             style="fill:#ffffff;fill-opacity:1;fill-rule:nonzero;stroke:none"
             id="path128" /></g><path
           d="m 406.296,107.509 h -49.113 v 0.633 h 49.113 z"
           style="fill:#ffffff;fill-opacity:1;fill-rule:nonzero;stroke:none"
           id="path130" /><path
           d="m 523.496,107.509 h -49.113 v 0.633 h 49.113 z"
           style="fill:#ffffff;fill-opacity:1;fill-rule:nonzero;stroke:none"
           id="path132" /><g
           id="g134"
           transform="translate(459.2285,147.0088)"><path
             d="m 0,0 v -11.281 h -47.032 v 60.74 H -1.127 V 38.178 H -33.059 V 24.989 H -4.862 V 14.054 H -33.059 V 0 Z"
             style="fill:#ffffff;fill-opacity:1;fill-rule:nonzero;stroke:none"
             id="path136" /></g><g
           id="g138"
           transform="translate(481.627,138.7217)"><path
             d="m 0,0 c -5.004,2.688 -8.935,6.419 -11.8,11.192 -2.861,4.774 -4.295,10.168 -4.295,16.184 0,6.016 1.434,11.41 4.295,16.184 2.865,4.772 6.796,8.503 11.8,11.192 5.004,2.688 10.629,4.037 16.88,4.037 5.262,0 10.021,-0.928 14.271,-2.777 4.254,-1.855 7.826,-4.517 10.718,-7.986 l -9.023,-8.331 c -4.113,4.743 -9.2,7.116 -15.274,7.116 -3.761,0 -7.116,-0.826 -10.066,-2.471 -2.95,-1.651 -5.248,-3.948 -6.898,-6.899 -1.65,-2.95 -2.471,-6.307 -2.471,-10.065 0,-3.762 0.821,-7.116 2.471,-10.065 1.65,-2.951 3.948,-5.248 6.898,-6.899 2.95,-1.65 6.305,-2.472 10.066,-2.472 6.074,0 11.161,2.396 15.274,7.201 L 41.869,6.81 C 38.977,3.283 35.388,0.59 31.106,-1.26 26.826,-3.109 22.053,-4.037 16.791,-4.037 10.599,-4.037 5.004,-2.692 0,0"
             style="fill:#ffffff;fill-opacity:1;fill-rule:nonzero;stroke:none"
             id="path140" /></g><g
           id="g142"
           transform="translate(380.0879,160.7207)"><path
             d="M 0,0 H 19.266 V 11.277 H -6.907 Z"
             style="fill:#ffffff;fill-opacity:1;fill-rule:nonzero;stroke:none"
             id="path144" /></g><g
           id="g146"
           transform="translate(357.1826,196.4678)"><path
             d="m 0,0 v -60.74 h 14.059 v 49.459 H 45.906 V 0 Z"
             style="fill:#ffffff;fill-opacity:1;fill-rule:nonzero;stroke:none"
             id="path148" /></g><g
           id="g150"
           transform="translate(78.0767,124.9629)"><path
             d="m 0,0 v -1.61 h -4.271 v -2.718 h 3.423 V -5.88 h -3.423 v -4.27 H -6.297 V 0 Z"
             style="fill:#ffffff;fill-opacity:1;fill-rule:nonzero;stroke:none"
             id="path152" /></g><g
           id="g154"
           transform="translate(82.2905,122.835)"><path
             d="m 0,0 c -0.451,-0.269 -0.803,-0.654 -1.057,-1.157 -0.254,-0.504 -0.38,-1.09 -0.38,-1.761 0,-0.672 0.126,-1.259 0.38,-1.762 0.254,-0.503 0.606,-0.888 1.057,-1.158 0.45,-0.267 0.973,-0.401 1.567,-0.401 0.594,0 1.117,0.134 1.567,0.401 0.451,0.27 0.803,0.655 1.057,1.158 0.254,0.503 0.381,1.09 0.381,1.762 0,0.671 -0.127,1.257 -0.381,1.761 C 3.937,-0.654 3.585,-0.269 3.134,0 2.684,0.269 2.161,0.403 1.567,0.403 0.973,0.403 0.45,0.269 0,0 M 4.148,1.61 C 4.919,1.17 5.528,0.554 5.974,-0.237 6.419,-1.028 6.643,-1.921 6.643,-2.918 6.643,-3.915 6.419,-4.812 5.974,-5.607 5.528,-6.402 4.919,-7.021 4.148,-7.462 3.376,-7.902 2.516,-8.123 1.567,-8.123 c -0.949,0 -1.809,0.221 -2.581,0.661 -0.771,0.441 -1.38,1.06 -1.825,1.855 -0.446,0.795 -0.669,1.692 -0.669,2.689 0,0.997 0.223,1.89 0.669,2.681 0.445,0.791 1.054,1.407 1.825,1.847 0.772,0.441 1.632,0.661 2.581,0.661 0.949,0 1.809,-0.22 2.581,-0.661"
             style="fill:#ffffff;fill-opacity:1;fill-rule:nonzero;stroke:none"
             id="path156" /></g><g
           id="g158"
           transform="translate(92.5972,120.1611)"><path
             d="m 0,0 h 1.668 c 1.16,0 1.74,0.513 1.74,1.538 0,0.489 -0.142,0.87 -0.425,1.144 C 2.701,2.954 2.262,3.091 1.668,3.091 H 0 Z M 3.264,-5.349 0.892,-1.395 H 0 V -5.349 H -2.027 V 4.802 H 1.841 C 3.02,4.802 3.918,4.515 4.537,3.938 5.154,3.364 5.464,2.607 5.464,1.668 5.464,0.9 5.25,0.259 4.824,-0.26 4.397,-0.776 3.782,-1.121 2.977,-1.294 l 2.53,-4.055 z"
             style="fill:#ffffff;fill-opacity:1;fill-rule:nonzero;stroke:none"
             id="path160" /></g><g
           id="g162"
           transform="translate(101.668,123.3525)"><path
             d="M 0,0 V -2.631 H 3.595 V -4.183 H 0 V -6.916 H 4.026 V -8.54 H -2.027 V 1.61 H 4.026 V 0 Z"
             style="fill:#ffffff;fill-opacity:1;fill-rule:nonzero;stroke:none"
             id="path164" /></g><g
           id="g166"
           transform="translate(116.041,114.8125)"><path
             d="M 0,0 H -2.027 L -6.571,6.901 V 0 h -2.027 v 10.15 h 2.027 L -2.027,3.191 V 10.15 H 0 Z"
             style="fill:#ffffff;fill-opacity:1;fill-rule:nonzero;stroke:none"
             id="path168" /></g><g
           id="g170"
           transform="translate(124.667,116.1572)"><path
             d="m 0,0 c -0.259,-0.437 -0.642,-0.786 -1.15,-1.05 -0.508,-0.263 -1.126,-0.395 -1.855,-0.395 -0.719,0 -1.361,0.122 -1.926,0.366 -0.566,0.245 -1.019,0.598 -1.359,1.058 -0.34,0.459 -0.535,0.997 -0.582,1.61 h 2.156 c 0.049,-0.413 0.214,-0.755 0.497,-1.028 0.282,-0.274 0.658,-0.41 1.128,-0.41 0.422,0 0.745,0.113 0.971,0.337 0.225,0.226 0.337,0.515 0.337,0.87 0,0.316 -0.091,0.578 -0.272,0.784 -0.183,0.206 -0.413,0.372 -0.691,0.496 -0.278,0.125 -0.661,0.268 -1.15,0.431 C -4.529,3.28 -5.046,3.488 -5.449,3.695 -5.851,3.901 -6.194,4.2 -6.477,4.594 -6.76,4.986 -6.9,5.499 -6.9,6.132 c 0,0.872 0.313,1.559 0.941,2.062 0.627,0.504 1.459,0.755 2.494,0.755 1.073,0 1.929,-0.259 2.567,-0.776 0.637,-0.518 0.999,-1.207 1.085,-2.07 h -2.185 c -0.057,0.365 -0.211,0.664 -0.46,0.898 -0.25,0.235 -0.589,0.353 -1.021,0.353 -0.374,0 -0.675,-0.098 -0.906,-0.294 -0.23,-0.198 -0.344,-0.483 -0.344,-0.856 0,-0.297 0.088,-0.545 0.265,-0.741 0.177,-0.196 0.402,-0.357 0.675,-0.482 0.274,-0.124 0.645,-0.263 1.115,-0.417 0.652,-0.23 1.181,-0.446 1.589,-0.647 0.407,-0.2 0.754,-0.503 1.043,-0.904 C 0.245,2.609 0.388,2.082 0.388,1.43 0.388,0.913 0.259,0.437 0,0"
             style="fill:#ffffff;fill-opacity:1;fill-rule:nonzero;stroke:none"
             id="path172" /></g><path
           d="m 128.753,114.813 h -2.027 v 10.15 h 2.027 z"
           style="fill:#ffffff;fill-opacity:1;fill-rule:nonzero;stroke:none"
           id="path174" /><g
           id="g176"
           transform="translate(138.4707,124.0859)"><path
             d="m 0,0 c 0.833,-0.651 1.385,-1.538 1.653,-2.66 h -2.128 c -0.22,0.547 -0.563,0.978 -1.028,1.294 -0.465,0.316 -1.023,0.475 -1.675,0.475 -0.536,0 -1.02,-0.135 -1.452,-0.403 -0.432,-0.268 -0.767,-0.652 -1.006,-1.15 -0.24,-0.498 -0.36,-1.083 -0.36,-1.754 0,-0.661 0.12,-1.241 0.36,-1.74 0.239,-0.499 0.574,-0.881 1.006,-1.151 0.432,-0.267 0.916,-0.401 1.452,-0.401 0.652,0 1.21,0.157 1.675,0.474 0.465,0.317 0.808,0.747 1.028,1.294 H 1.653 C 1.385,-6.844 0.833,-7.73 0,-8.383 c -0.834,-0.651 -1.884,-0.976 -3.149,-0.976 -0.968,0 -1.823,0.217 -2.566,0.654 -0.743,0.435 -1.319,1.046 -1.726,1.833 -0.407,0.786 -0.61,1.677 -0.61,2.674 0,1.007 0.203,1.903 0.61,2.688 0.407,0.786 0.981,1.398 1.719,1.834 0.737,0.436 1.596,0.654 2.573,0.654 C -1.884,0.978 -0.834,0.651 0,0"
             style="fill:#ffffff;fill-opacity:1;fill-rule:nonzero;stroke:none"
             id="path178" /></g><g
           id="g180"
           transform="translate(146.8091,123.3525)"><path
             d="M 0,0 V -2.631 H 3.594 V -4.183 H 0 V -6.916 H 4.026 V -8.54 H -2.027 V 1.61 H 4.026 V 0 Z"
             style="fill:#ffffff;fill-opacity:1;fill-rule:nonzero;stroke:none"
             id="path182" /></g><g
           id="g184"
           transform="translate(161.1821,114.8125)"><path
             d="M 0,0 H -2.027 L -6.571,6.901 V 0 h -2.027 v 10.15 h 2.027 L -2.027,3.191 V 10.15 H 0 Z"
             style="fill:#ffffff;fill-opacity:1;fill-rule:nonzero;stroke:none"
             id="path186" /></g><g
           id="g188"
           transform="translate(170.9492,124.1504)"><path
             d="m 0,0 c 0.815,-0.608 1.337,-1.431 1.567,-2.466 h -2.128 c -0.201,0.461 -0.52,0.827 -0.955,1.1 -0.437,0.273 -0.952,0.411 -1.546,0.411 -0.585,0 -1.102,-0.136 -1.553,-0.403 -0.45,-0.269 -0.801,-0.653 -1.05,-1.151 -0.249,-0.498 -0.373,-1.083 -0.373,-1.754 0,-1.063 0.285,-1.893 0.855,-2.487 0.571,-0.594 1.35,-0.892 2.337,-0.892 0.728,0 1.353,0.217 1.876,0.648 0.522,0.431 0.86,1.03 1.013,1.797 h -3.436 v 1.452 H 1.74 V -5.7 C 1.597,-6.371 1.315,-6.99 0.899,-7.555 0.482,-8.121 -0.064,-8.573 -0.74,-8.913 c -0.676,-0.341 -1.45,-0.511 -2.322,-0.511 -0.997,0 -1.876,0.218 -2.638,0.654 -0.762,0.436 -1.352,1.044 -1.769,1.826 -0.417,0.782 -0.625,1.674 -0.625,2.681 0,1.007 0.208,1.9 0.625,2.682 0.417,0.781 1.004,1.393 1.761,1.833 0.757,0.44 1.634,0.661 2.631,0.661 C -1.84,0.913 -0.814,0.608 0,0"
             style="fill:#ffffff;fill-opacity:1;fill-rule:nonzero;stroke:none"
             id="path190" /></g><path
           d="M 176.427,114.813 H 174.4 v 10.15 h 2.027 z"
           style="fill:#ffffff;fill-opacity:1;fill-rule:nonzero;stroke:none"
           id="path192" /><g
           id="g194"
           transform="translate(187.1138,114.8125)"><path
             d="M 0,0 H -2.027 L -6.571,6.901 V 0 h -2.026 v 10.15 h 2.026 L -2.027,3.191 V 10.15 H 0 Z"
             style="fill:#ffffff;fill-opacity:1;fill-rule:nonzero;stroke:none"
             id="path196" /></g><g
           id="g198"
           transform="translate(191.23,123.3525)"><path
             d="M 0,0 V -2.631 H 3.595 V -4.183 H 0 V -6.916 H 4.026 V -8.54 H -2.027 V 1.61 H 4.026 V 0 Z"
             style="fill:#ffffff;fill-opacity:1;fill-rule:nonzero;stroke:none"
             id="path200" /></g><g
           id="g202"
           transform="translate(199.0322,123.3525)"><path
             d="M 0,0 V -2.631 H 3.595 V -4.183 H 0 V -6.916 H 4.026 V -8.54 H -2.026 V 1.61 H 4.026 V 0 Z"
             style="fill:#ffffff;fill-opacity:1;fill-rule:nonzero;stroke:none"
             id="path204" /></g><g
           id="g206"
           transform="translate(206.835,120.1611)"><path
             d="m 0,0 h 1.668 c 1.16,0 1.739,0.513 1.739,1.538 0,0.489 -0.141,0.87 -0.424,1.144 C 2.7,2.954 2.262,3.091 1.668,3.091 H 0 Z M 3.264,-5.349 0.891,-1.395 H 0 V -5.349 H -2.027 V 4.802 H 1.841 C 3.02,4.802 3.918,4.515 4.536,3.938 5.154,3.364 5.464,2.607 5.464,1.668 5.464,0.9 5.25,0.259 4.824,-0.26 4.397,-0.776 3.782,-1.121 2.977,-1.294 l 2.529,-4.055 z"
             style="fill:#ffffff;fill-opacity:1;fill-rule:nonzero;stroke:none"
             id="path208" /></g><path
           d="m 215.898,114.813 h -2.027 v 10.15 h 2.027 z"
           style="fill:#ffffff;fill-opacity:1;fill-rule:nonzero;stroke:none"
           id="path210" /><g
           id="g212"
           transform="translate(226.585,114.8125)"><path
             d="M 0,0 H -2.027 L -6.571,6.901 V 0 h -2.027 v 10.15 h 2.027 L -2.027,3.191 V 10.15 H 0 Z"
             style="fill:#ffffff;fill-opacity:1;fill-rule:nonzero;stroke:none"
             id="path214" /></g><g
           id="g216"
           transform="translate(236.353,124.1504)"><path
             d="m 0,0 c 0.814,-0.608 1.337,-1.431 1.567,-2.466 h -2.128 c -0.201,0.461 -0.52,0.827 -0.956,1.1 -0.436,0.273 -0.951,0.411 -1.546,0.411 -0.584,0 -1.102,-0.136 -1.552,-0.403 -0.451,-0.269 -0.801,-0.653 -1.05,-1.151 -0.249,-0.498 -0.374,-1.083 -0.374,-1.754 0,-1.063 0.286,-1.893 0.856,-2.487 0.57,-0.594 1.349,-0.892 2.336,-0.892 0.728,0 1.354,0.217 1.877,0.648 0.522,0.431 0.86,1.03 1.013,1.797 h -3.437 v 1.452 H 1.74 V -5.7 C 1.596,-6.371 1.315,-6.99 0.898,-7.555 0.481,-8.121 -0.064,-8.573 -0.741,-8.913 -1.417,-9.254 -2.19,-9.424 -3.063,-9.424 c -0.997,0 -1.875,0.218 -2.638,0.654 -0.761,0.436 -1.351,1.044 -1.768,1.826 -0.417,0.782 -0.625,1.674 -0.625,2.681 0,1.007 0.208,1.9 0.625,2.682 0.417,0.781 1.004,1.393 1.761,1.833 0.757,0.44 1.634,0.661 2.631,0.661 C -1.84,0.913 -0.815,0.608 0,0"
             style="fill:#ffffff;fill-opacity:1;fill-rule:nonzero;stroke:none"
             id="path218" /></g><g
           id="g220"
           transform="translate(131.8306,110.2012)"><path
             d="m 0,0 c 0.474,-0.371 0.787,-0.876 0.94,-1.513 h -1.211 c -0.125,0.311 -0.319,0.556 -0.583,0.736 -0.265,0.179 -0.583,0.269 -0.953,0.269 -0.306,0 -0.581,-0.076 -0.826,-0.228 -0.245,-0.154 -0.436,-0.371 -0.573,-0.655 -0.136,-0.283 -0.204,-0.616 -0.204,-0.998 0,-0.376 0.068,-0.706 0.204,-0.989 0.137,-0.283 0.328,-0.501 0.573,-0.654 0.245,-0.152 0.52,-0.229 0.826,-0.229 0.37,0 0.688,0.091 0.953,0.27 0.264,0.179 0.458,0.426 0.583,0.736 H 0.94 C 0.787,-3.893 0.474,-4.396 0,-4.768 c -0.475,-0.371 -1.071,-0.556 -1.791,-0.556 -0.55,0 -1.037,0.125 -1.459,0.372 -0.423,0.249 -0.75,0.596 -0.982,1.043 -0.231,0.447 -0.347,0.954 -0.347,1.52 0,0.574 0.116,1.083 0.347,1.531 0.232,0.446 0.557,0.794 0.977,1.042 0.42,0.248 0.908,0.372 1.464,0.372 C -1.071,0.556 -0.475,0.37 0,0"
             style="fill:#ffffff;fill-opacity:1;fill-rule:nonzero;stroke:none"
             id="path222" /></g><g
           id="g224"
           transform="translate(137.7837,109.4893)"><path
             d="m 0,0 c -0.257,-0.152 -0.457,-0.372 -0.601,-0.658 -0.145,-0.286 -0.217,-0.62 -0.217,-1.001 0,-0.382 0.072,-0.716 0.217,-1.003 0.144,-0.286 0.344,-0.505 0.601,-0.658 0.256,-0.152 0.553,-0.229 0.891,-0.229 0.338,0 0.635,0.077 0.891,0.229 0.257,0.153 0.457,0.372 0.601,0.658 0.145,0.287 0.217,0.621 0.217,1.003 0,0.381 -0.072,0.715 -0.217,1.001 C 2.239,-0.372 2.039,-0.152 1.782,0 1.526,0.152 1.229,0.229 0.891,0.229 0.553,0.229 0.256,0.152 0,0 m 2.359,0.916 c 0.438,-0.251 0.785,-0.601 1.038,-1.051 0.254,-0.449 0.38,-0.958 0.38,-1.524 0,-0.568 -0.126,-1.077 -0.38,-1.53 C 3.144,-3.642 2.797,-3.993 2.359,-4.244 1.92,-4.495 1.431,-4.62 0.891,-4.62 c -0.54,0 -1.029,0.125 -1.468,0.376 -0.438,0.251 -0.785,0.602 -1.038,1.055 -0.254,0.453 -0.38,0.962 -0.38,1.53 0,0.566 0.126,1.075 0.38,1.524 0.253,0.45 0.6,0.8 1.038,1.051 0.439,0.251 0.928,0.376 1.468,0.376 0.54,0 1.029,-0.125 1.468,-0.376"
             style="fill:#ffffff;fill-opacity:1;fill-rule:nonzero;stroke:none"
             id="path226" /></g><g
           id="g228"
           transform="translate(151.0781,110.6348)"><path
             d="m 0,0 v -5.708 h -1.145 v 3.982 L -2.608,-5.708 H -3.606 L -5.07,-1.742 V -5.708 H -6.223 V 0 h 1.399 L -3.091,-4.293 -1.39,0 Z"
             style="fill:#ffffff;fill-opacity:1;fill-rule:nonzero;stroke:none"
             id="path230" /></g><g
           id="g232"
           transform="translate(157.6201,108.876)"><path
             d="m 0,0 c 0,0.289 -0.079,0.51 -0.237,0.662 -0.158,0.153 -0.417,0.23 -0.777,0.23 H -1.84 v -1.775 h 0.826 C -0.338,-0.883 0,-0.588 0,0 m -1.84,-1.808 v -2.141 h -1.153 v 5.773 h 2.102 C -0.21,1.824 0.304,1.659 0.65,1.333 0.996,1.006 1.169,0.562 1.169,0 1.169,-0.55 0.991,-0.989 0.634,-1.316 0.276,-1.644 -0.232,-1.808 -0.891,-1.808 Z"
             style="fill:#ffffff;fill-opacity:1;fill-rule:nonzero;stroke:none"
             id="path234" /></g><g
           id="g236"
           transform="translate(164.6831,106.9629)"><path
             d="M 0,0 -0.85,2.437 -1.701,0 Z M 0.311,-0.875 H -2.003 L -2.412,-2.036 H -3.63 l 2.126,5.708 h 1.316 L 1.93,-2.036 H 0.712 Z"
             style="fill:#ffffff;fill-opacity:1;fill-rule:nonzero;stroke:none"
             id="path238" /></g><g
           id="g240"
           transform="translate(174.5229,104.9268)"><path
             d="M 0,0 H -1.153 L -3.737,3.925 V 0 H -4.89 v 5.773 h 1.153 L -1.153,1.815 V 5.773 H 0 Z"
             style="fill:#ffffff;fill-opacity:1;fill-rule:nonzero;stroke:none"
             id="path242" /></g><g
           id="g244"
           transform="translate(182.6211,110.7002)"><path
             d="m 0,0 -1.955,-3.754 v -2.019 h -1.16 v 2.019 L -5.078,0 h 1.325 L -2.527,-2.527 -1.3,0 Z"
             style="fill:#ffffff;fill-opacity:1;fill-rule:nonzero;stroke:none"
             id="path246" /></g><path
           d="M 120.892,107.509 H 71.78 v 0.633 h 49.112 z"
           style="fill:#ffffff;fill-opacity:1;fill-rule:nonzero;stroke:none"
           id="path248" /><path
           d="M 238.093,107.509 H 188.98 v 0.633 h 49.113 z"
           style="fill:#ffffff;fill-opacity:1;fill-rule:nonzero;stroke:none"
           id="path250" /><g
           id="g252"
           transform="translate(173.8257,147.0088)"><path
             d="m 0,0 v -11.281 h -47.033 v 60.74 H -1.127 V 38.178 H -33.059 V 24.989 H -4.862 V 14.054 H -33.059 V 0 Z"
             style="fill:#ffffff;fill-opacity:1;fill-rule:nonzero;stroke:none"
             id="path254" /></g><g
           id="g256"
           transform="translate(196.2241,138.7217)"><path
             d="m 0,0 c -5.004,2.688 -8.935,6.419 -11.8,11.192 -2.862,4.774 -4.295,10.168 -4.295,16.184 0,6.016 1.433,11.41 4.295,16.184 2.865,4.772 6.796,8.503 11.8,11.192 5.004,2.688 10.629,4.037 16.879,4.037 5.262,0 10.022,-0.928 14.272,-2.777 4.254,-1.855 7.825,-4.517 10.718,-7.986 l -9.024,-8.331 c -4.112,4.743 -9.2,7.116 -15.273,7.116 -3.762,0 -7.116,-0.826 -10.066,-2.471 -2.95,-1.651 -5.248,-3.948 -6.899,-6.899 -1.65,-2.95 -2.47,-6.307 -2.47,-10.065 0,-3.762 0.82,-7.116 2.47,-10.065 1.651,-2.951 3.949,-5.248 6.899,-6.899 2.95,-1.65 6.304,-2.472 10.066,-2.472 6.073,0 11.161,2.396 15.273,7.201 L 41.869,6.81 C 38.976,3.283 35.387,0.59 31.106,-1.26 26.826,-3.109 22.052,-4.037 16.791,-4.037 10.598,-4.037 5.004,-2.692 0,0"
             style="fill:#ffffff;fill-opacity:1;fill-rule:nonzero;stroke:none"
             id="path258" /></g><g
           id="g260"
           transform="translate(94.6851,160.7207)"><path
             d="M 0,0 H 19.265 V 11.277 H -6.908 Z"
             style="fill:#e30613;fill-opacity:1;fill-rule:nonzero;stroke:none"
             id="path262" /></g><g
           id="g264"
           transform="translate(71.7798,196.4678)"><path
             d="m 0,0 v -60.74 h 14.058 v 49.459 H 45.906 V 0 Z"
             style="fill:#ffffff;fill-opacity:1;fill-rule:nonzero;stroke:none"
             id="path266" /></g><g
           id="g268"
           transform="translate(173.8257,549.7217)"><path
             d="m 0,0 v -11.281 h -47.033 v 60.74 H -1.127 V 38.178 H -33.059 V 24.988 H -4.862 V 14.054 H -33.059 V 0 Z"
             style="fill:#001a41;fill-opacity:1;fill-rule:nonzero;stroke:none"
             id="path270" /></g><g
           id="g272"
           transform="translate(196.2241,541.4346)"><path
             d="m 0,0 c -5.004,2.688 -8.935,6.419 -11.8,11.192 -2.862,4.774 -4.295,10.168 -4.295,16.184 0,6.016 1.433,11.409 4.295,16.183 2.865,4.773 6.796,8.504 11.8,11.192 5.004,2.688 10.629,4.037 16.879,4.037 5.262,0 10.022,-0.927 14.272,-2.776 4.254,-1.855 7.825,-4.517 10.718,-7.986 l -9.024,-8.331 c -4.112,4.743 -9.2,7.116 -15.273,7.116 -3.762,0 -7.116,-0.826 -10.066,-2.471 -2.95,-1.651 -5.248,-3.948 -6.899,-6.899 -1.65,-2.95 -2.47,-6.308 -2.47,-10.065 0,-3.763 0.82,-7.116 2.47,-10.066 1.651,-2.951 3.949,-5.248 6.899,-6.898 2.95,-1.65 6.304,-2.472 10.066,-2.472 6.073,0 11.161,2.396 15.273,7.201 L 41.869,6.81 C 38.976,3.282 35.387,0.59 31.106,-1.26 26.826,-3.11 22.052,-4.037 16.791,-4.037 10.598,-4.037 5.004,-2.692 0,0"
             style="fill:#001a41;fill-opacity:1;fill-rule:nonzero;stroke:none"
             id="path274" /></g><g
           id="g276"
           transform="translate(94.6851,563.4336)"><path
             d="M 0,0 H 19.265 V 11.277 H -6.908 Z"
             style="fill:#e30613;fill-opacity:1;fill-rule:nonzero;stroke:none"
             id="path278" /></g><g
           id="g280"
           transform="translate(71.7798,599.1807)"><path
             d="m 0,0 v -60.74 h 14.058 v 49.459 H 45.906 V 0 Z"
             style="fill:#001a41;fill-opacity:1;fill-rule:nonzero;stroke:none"
             id="path282" /></g><g
           id="g284"
           transform="translate(459.2285,549.7217)"><path
             d="m 0,0 v -11.281 h -47.032 v 60.74 H -1.127 V 38.178 H -33.059 V 24.988 H -4.862 V 14.054 H -33.059 V 0 Z"
             style="fill:#ffffff;fill-opacity:1;fill-rule:nonzero;stroke:none"
             id="path286" /></g><g
           id="g288"
           transform="translate(481.627,541.4346)"><path
             d="m 0,0 c -5.004,2.688 -8.935,6.419 -11.8,11.192 -2.861,4.774 -4.295,10.168 -4.295,16.184 0,6.016 1.434,11.409 4.295,16.183 2.865,4.773 6.796,8.504 11.8,11.192 5.004,2.688 10.629,4.037 16.88,4.037 5.262,0 10.021,-0.927 14.271,-2.776 4.254,-1.855 7.826,-4.517 10.718,-7.986 l -9.023,-8.331 c -4.113,4.743 -9.2,7.116 -15.274,7.116 -3.761,0 -7.116,-0.826 -10.066,-2.471 -2.95,-1.651 -5.248,-3.948 -6.898,-6.899 -1.65,-2.95 -2.471,-6.308 -2.471,-10.065 0,-3.763 0.821,-7.116 2.471,-10.066 1.65,-2.951 3.948,-5.248 6.898,-6.898 2.95,-1.65 6.305,-2.472 10.066,-2.472 6.074,0 11.161,2.396 15.274,7.201 L 41.869,6.81 C 38.977,3.282 35.388,0.59 31.106,-1.26 26.826,-3.11 22.053,-4.037 16.791,-4.037 10.599,-4.037 5.004,-2.692 0,0"
             style="fill:#ffffff;fill-opacity:1;fill-rule:nonzero;stroke:none"
             id="path290" /></g><g
           id="g292"
           transform="translate(380.0879,563.4336)"><path
             d="M 0,0 H 19.266 V 11.277 H -6.907 Z"
             style="fill:#e30613;fill-opacity:1;fill-rule:nonzero;stroke:none"
             id="path294" /></g><g
           id="g296"
           transform="translate(357.1826,599.1807)"><path
             d="m 0,0 v -60.74 h 14.059 v 49.459 H 45.906 V 0 Z"
             style="fill:#ffffff;fill-opacity:1;fill-rule:nonzero;stroke:none"
             id="path298" /></g><g
           id="g300"
           transform="translate(459.2285,345.5518)"><path
             d="M 0,0 V -11.281 H -47.032 V 49.46 H -1.127 V 38.179 H -33.059 V 24.989 H -4.862 V 14.055 H -33.059 V 0 Z"
             style="fill:#ffffff;fill-opacity:1;fill-rule:nonzero;stroke:none"
             id="path302" /></g><g
           id="g304"
           transform="translate(481.627,337.2656)"><path
             d="m 0,0 c -5.004,2.688 -8.935,6.419 -11.8,11.192 -2.861,4.774 -4.295,10.168 -4.295,16.184 0,6.015 1.434,11.409 4.295,16.183 2.865,4.773 6.796,8.504 11.8,11.192 5.004,2.688 10.629,4.037 16.88,4.037 5.262,0 10.021,-0.927 14.271,-2.777 4.254,-1.854 7.826,-4.516 10.718,-7.985 l -9.023,-8.331 c -4.113,4.743 -9.2,7.116 -15.274,7.116 -3.761,0 -7.116,-0.826 -10.066,-2.471 -2.95,-1.651 -5.248,-3.948 -6.898,-6.899 -1.65,-2.95 -2.471,-6.308 -2.471,-10.065 0,-3.763 0.821,-7.116 2.471,-10.066 1.65,-2.951 3.948,-5.248 6.898,-6.899 2.95,-1.649 6.305,-2.471 10.066,-2.471 6.074,0 11.161,2.396 15.274,7.201 L 41.869,6.81 C 38.977,3.282 35.388,0.59 31.106,-1.26 26.826,-3.11 22.053,-4.037 16.791,-4.037 10.599,-4.037 5.004,-2.693 0,0"
             style="fill:#ffffff;fill-opacity:1;fill-rule:nonzero;stroke:none"
             id="path306" /></g><g
           id="g308"
           transform="translate(380.0879,359.2646)"><path
             d="M 0,0 H 19.266 V 11.276 H -6.907 Z"
             style="fill:#e30613;fill-opacity:1;fill-rule:nonzero;stroke:none"
             id="path310" /></g><g
           id="g312"
           transform="translate(357.1826,395.0117)"><path
             d="m 0,0 v -60.74 h 14.059 v 49.459 H 45.906 V 0 Z"
             style="fill:#ffffff;fill-opacity:1;fill-rule:nonzero;stroke:none"
             id="path314" /></g><g
           id="g316"
           transform="translate(173.8257,345.5518)"><path
             d="M 0,0 V -11.281 H -47.033 V 49.46 H -1.127 V 38.179 H -33.059 V 24.989 H -4.862 V 14.055 H -33.059 V 0 Z"
             style="fill:#ffffff;fill-opacity:1;fill-rule:nonzero;stroke:none"
             id="path318" /></g><g
           id="g320"
           transform="translate(196.2241,337.2656)"><path
             d="m 0,0 c -5.004,2.688 -8.935,6.419 -11.8,11.192 -2.862,4.774 -4.295,10.168 -4.295,16.184 0,6.015 1.433,11.409 4.295,16.183 2.865,4.773 6.796,8.504 11.8,11.192 5.004,2.688 10.629,4.037 16.879,4.037 5.262,0 10.022,-0.927 14.272,-2.777 4.254,-1.854 7.825,-4.516 10.718,-7.985 l -9.024,-8.331 c -4.112,4.743 -9.2,7.116 -15.273,7.116 -3.762,0 -7.116,-0.826 -10.066,-2.471 -2.95,-1.651 -5.248,-3.948 -6.899,-6.899 -1.65,-2.95 -2.47,-6.308 -2.47,-10.065 0,-3.763 0.82,-7.116 2.47,-10.066 1.651,-2.951 3.949,-5.248 6.899,-6.899 2.95,-1.649 6.304,-2.471 10.066,-2.471 6.073,0 11.161,2.396 15.273,7.201 L 41.869,6.81 C 38.976,3.282 35.387,0.59 31.106,-1.26 26.826,-3.11 22.052,-4.037 16.791,-4.037 10.598,-4.037 5.004,-2.693 0,0"
             style="fill:#ffffff;fill-opacity:1;fill-rule:nonzero;stroke:none"
             id="path322" /></g><g
           id="g324"
           transform="translate(94.6851,359.2646)"><path
             d="M 0,0 H 19.265 V 11.276 H -6.908 Z"
             style="fill:#ffffff;fill-opacity:1;fill-rule:nonzero;stroke:none"
             id="path326" /></g><g
           id="g328"
           transform="translate(71.7798,395.0117)"><path
             d="m 0,0 v -60.74 h 14.058 v 49.459 H 45.906 V 0 Z"
             style="fill:#ffffff;fill-opacity:1;fill-rule:nonzero;stroke:none"
             id="path330" /></g></g></g></g><g
     inkscape:groupmode="layer"
     id="layer1"
     inkscape:label="Extracted Paths"><g
       id="g766"
       transform="translate(-18.258555,-167.97932)"><path
         d="m 119.53529,824.10063 v 2.14667 h -5.69467 v 3.624 h 4.564 v 2.06933 h -4.564 v 5.69333 h -2.70133 v -13.53333 z"
         style="fill:#ffffff;fill-opacity:1;fill-rule:nonzero;stroke:none;stroke-width:1.33333"
         id="path152-3" /><path
         d="m 125.15369,826.93783 c -0.60133,0.35867 -1.07067,0.872 -1.40933,1.54267 -0.33867,0.672 -0.50667,1.45333 -0.50667,2.348 0,0.896 0.168,1.67866 0.50667,2.34933 0.33866,0.67067 0.808,1.184 1.40933,1.544 0.6,0.356 1.29733,0.53467 2.08933,0.53467 0.792,0 1.48934,-0.17867 2.08934,-0.53467 0.60133,-0.36 1.07066,-0.87333 1.40933,-1.544 0.33867,-0.67067 0.508,-1.45333 0.508,-2.34933 0,-0.89467 -0.16933,-1.676 -0.508,-2.348 -0.33867,-0.67067 -0.808,-1.184 -1.40933,-1.54267 -0.6,-0.35867 -1.29734,-0.53733 -2.08934,-0.53733 -0.792,0 -1.48933,0.17866 -2.08933,0.53733 m 5.53067,-2.14667 c 1.028,0.58667 1.84,1.408 2.43466,2.46267 0.59334,1.05467 0.892,2.24533 0.892,3.57467 0,1.32933 -0.29866,2.52533 -0.892,3.58533 -0.59466,1.06 -1.40666,1.88533 -2.43466,2.47333 -1.02934,0.58667 -2.176,0.88134 -3.44134,0.88134 -1.26533,0 -2.412,-0.29467 -3.44133,-0.88134 -1.028,-0.588 -1.84,-1.41333 -2.43333,-2.47333 -0.59467,-1.06 -0.892,-2.256 -0.892,-3.58533 0,-1.32934 0.29733,-2.52 0.892,-3.57467 0.59333,-1.05467 1.40533,-1.876 2.43333,-2.46267 1.02933,-0.588 2.176,-0.88133 3.44133,-0.88133 1.26534,0 2.412,0.29333 3.44134,0.88133"
         style="fill:#ffffff;fill-opacity:1;fill-rule:nonzero;stroke:none;stroke-width:1.33333"
         id="path156-1" /><path
         d="m 138.89596,830.50303 h 2.224 c 1.54667,0 2.32,-0.684 2.32,-2.05067 0,-0.652 -0.18933,-1.16 -0.56667,-1.52533 -0.376,-0.36267 -0.96133,-0.54533 -1.75333,-0.54533 h -2.224 z m 4.352,7.132 -3.16267,-5.272 h -1.18933 v 5.272 h -2.70267 v -13.53467 h 5.15734 c 1.572,0 2.76933,0.38267 3.59466,1.152 0.82267,0.76534 1.236,1.77467 1.236,3.02667 0,1.024 -0.28533,1.87867 -0.85333,2.57067 -0.56933,0.688 -1.38933,1.148 -2.46267,1.37866 l 3.37334,5.40667 z"
         style="fill:#ffffff;fill-opacity:1;fill-rule:nonzero;stroke:none;stroke-width:1.33333"
         id="path160-4" /><path
         d="m 150.99036,826.24783 v 3.508 h 4.79333 v 2.06933 h -4.79333 v 3.644 h 5.368 v 2.16534 h -8.07067 v -13.53334 h 8.07067 v 2.14667 z"
         style="fill:#ffffff;fill-opacity:1;fill-rule:nonzero;stroke:none;stroke-width:1.33333"
         id="path164-9" /><path
         d="m 170.15436,837.6345 h -2.70267 l -6.05866,-9.20133 v 9.20133 h -2.70267 v -13.53333 h 2.70267 l 6.05866,9.27866 v -9.27866 h 2.70267 z"
         style="fill:#ffffff;fill-opacity:1;fill-rule:nonzero;stroke:none;stroke-width:1.33333"
         id="path168-8" /><path
         d="m 181.65569,835.84157 c -0.34533,0.58267 -0.856,1.048 -1.53333,1.4 -0.67734,0.35067 -1.50134,0.52667 -2.47334,0.52667 -0.95866,0 -1.81466,-0.16267 -2.568,-0.488 -0.75466,-0.32667 -1.35866,-0.79734 -1.812,-1.41067 -0.45333,-0.612 -0.71333,-1.32933 -0.776,-2.14667 h 2.87467 c 0.0653,0.55067 0.28533,1.00667 0.66267,1.37067 0.376,0.36533 0.87733,0.54667 1.504,0.54667 0.56266,0 0.99333,-0.15067 1.29466,-0.44934 0.3,-0.30133 0.44934,-0.68666 0.44934,-1.16 0,-0.42133 -0.12134,-0.77066 -0.36267,-1.04533 -0.244,-0.27467 -0.55067,-0.496 -0.92133,-0.66133 -0.37067,-0.16667 -0.88134,-0.35734 -1.53334,-0.57467 -0.844,-0.28133 -1.53333,-0.55867 -2.07066,-0.83467 -0.536,-0.27466 -0.99334,-0.67333 -1.37067,-1.19866 -0.37733,-0.52267 -0.564,-1.20667 -0.564,-2.05067 0,-1.16267 0.41733,-2.07867 1.25467,-2.74933 0.836,-0.672 1.94533,-1.00667 3.32533,-1.00667 1.43067,0 2.572,0.34533 3.42267,1.03467 0.84933,0.69066 1.332,1.60933 1.44666,2.76 h -2.91333 c -0.076,-0.48667 -0.28133,-0.88534 -0.61333,-1.19734 -0.33334,-0.31333 -0.78534,-0.47066 -1.36134,-0.47066 -0.49866,0 -0.9,0.13066 -1.208,0.392 -0.30666,0.264 -0.45866,0.644 -0.45866,1.14133 0,0.396 0.11733,0.72667 0.35333,0.988 0.236,0.26133 0.536,0.476 0.9,0.64267 0.36533,0.16533 0.86,0.35066 1.48667,0.556 0.86933,0.30666 1.57466,0.59466 2.11866,0.86266 0.54267,0.26667 1.00534,0.67067 1.39067,1.20534 0.38267,0.53866 0.57333,1.24133 0.57333,2.11066 0,0.68934 -0.172,1.324 -0.51733,1.90667"
         style="fill:#ffffff;fill-opacity:1;fill-rule:nonzero;stroke:none;stroke-width:1.33333"
         id="path172-6" /><path
         d="m 187.10369,837.63383 h -2.70266 V 824.1005 h 2.70266 z"
         style="fill:#ffffff;fill-opacity:1;fill-rule:nonzero;stroke:none;stroke-width:1.33333"
         id="path174-3" /><path
         d="m 250.66903,837.63383 h -2.70267 V 824.1005 h 2.70267 z"
         style="fill:#ffffff;fill-opacity:1;fill-rule:nonzero;stroke:none;stroke-width:1.33333"
         id="path192-4" /><path
         d="m 303.29702,837.63383 h -2.70266 V 824.1005 h 2.70266 z"
         style="fill:#ffffff;fill-opacity:1;fill-rule:nonzero;stroke:none;stroke-width:1.33333"
         id="path210-2" /><path
         d="M 176.62236,847.3725 H 111.1397 v -0.844 h 65.48266 z"
         style="fill:#ffffff;fill-opacity:1;fill-rule:nonzero;stroke:none;stroke-width:1.33333"
         id="path248-5" /><path
         d="m 332.89036,847.3725 h -65.484 v -0.844 h 65.484 z"
         style="fill:#ffffff;fill-opacity:1;fill-rule:nonzero;stroke:none;stroke-width:1.33333"
         id="path250-6" /><path
         d="m 200.06063,825.26997 c 1.11067,0.868 1.84667,2.05067 2.204,3.54667 h -2.83733 c -0.29334,-0.72934 -0.75067,-1.304 -1.37067,-1.72534 -0.62,-0.42133 -1.364,-0.63333 -2.23333,-0.63333 -0.71467,0 -1.36,0.18 -1.936,0.53733 -0.576,0.35734 -1.02267,0.86934 -1.34134,1.53334 -0.32,0.664 -0.48,1.444 -0.48,2.33866 0,0.88134 0.16,1.65467 0.48,2.32 0.31867,0.66534 0.76534,1.17467 1.34134,1.53467 0.576,0.356 1.22133,0.53467 1.936,0.53467 0.86933,0 1.61333,-0.20934 2.23333,-0.632 0.62,-0.42267 1.07733,-0.996 1.37067,-1.72534 h 2.83733 c -0.35733,1.496 -1.09333,2.67734 -2.204,3.548 -1.112,0.868 -2.512,1.30134 -4.19867,1.30134 -1.29066,0 -2.43066,-0.28934 -3.42133,-0.872 -0.99067,-0.58 -1.75867,-1.39467 -2.30133,-2.444 -0.54267,-1.048 -0.81334,-2.236 -0.81334,-3.56534 0,-1.34266 0.27067,-2.53733 0.81334,-3.584 0.54266,-1.048 1.308,-1.864 2.292,-2.44533 0.98266,-0.58133 2.128,-0.872 3.43066,-0.872 1.68667,0 3.08667,0.436 4.19867,1.304"
         style="fill:#ffffff;fill-opacity:1;fill-rule:nonzero;stroke:none;stroke-width:1.33333"
         id="path178-6" /><path
         d="m 211.17849,826.24783 v 3.508 h 4.792 v 2.06933 h -4.792 v 3.644 h 5.368 v 2.16534 h -8.07067 v -13.53334 h 8.07067 v 2.14667 z"
         style="fill:#ffffff;fill-opacity:1;fill-rule:nonzero;stroke:none;stroke-width:1.33333"
         id="path182-0" /><path
         d="m 230.34249,837.6345 h -2.70267 l -6.05866,-9.20133 v 9.20133 h -2.70267 v -13.53333 h 2.70267 l 6.05866,9.27866 v -9.27866 h 2.70267 z"
         style="fill:#ffffff;fill-opacity:1;fill-rule:nonzero;stroke:none;stroke-width:1.33333"
         id="path186-3" /><path
         d="m 243.36529,825.18397 c 1.08667,0.81067 1.78267,1.908 2.08933,3.288 h -2.83733 c -0.268,-0.61467 -0.69333,-1.10267 -1.27333,-1.46667 -0.58267,-0.364 -1.26934,-0.548 -2.06134,-0.548 -0.78,0 -1.46933,0.18134 -2.07066,0.53734 -0.6,0.35866 -1.068,0.87066 -1.4,1.53466 -0.332,0.664 -0.49734,1.444 -0.49734,2.33867 0,1.41733 0.38,2.524 1.14,3.316 0.76134,0.792 1.8,1.18933 3.116,1.18933 0.97067,0 1.804,-0.28933 2.50134,-0.864 0.696,-0.57466 1.14666,-1.37333 1.35066,-2.396 h -4.58133 v -1.936 h 6.844 v 2.60667 c -0.19067,0.89467 -0.56667,1.72 -1.12133,2.47333 -0.556,0.75467 -1.284,1.35734 -2.18534,1.81067 -0.90133,0.45467 -1.93333,0.68133 -3.096,0.68133 -1.32933,0 -2.50133,-0.29066 -3.51733,-0.872 -1.016,-0.58133 -1.80267,-1.392 -2.35867,-2.43466 -0.556,-1.04267 -0.83333,-2.232 -0.83333,-3.57467 0,-1.34267 0.27733,-2.53333 0.83333,-3.576 0.556,-1.04133 1.33867,-1.85733 2.348,-2.444 1.00934,-0.58667 2.17867,-0.88133 3.508,-0.88133 1.64934,0 3.01734,0.40666 4.10267,1.21733"
         style="fill:#ffffff;fill-opacity:1;fill-rule:nonzero;stroke:none;stroke-width:1.33333"
         id="path190-0" /><path
         d="m 264.91809,837.6345 h -2.70267 l -6.05866,-9.20133 v 9.20133 h -2.70134 v -13.53333 h 2.70134 l 6.05866,9.27866 v -9.27866 h 2.70267 z"
         style="fill:#ffffff;fill-opacity:1;fill-rule:nonzero;stroke:none;stroke-width:1.33333"
         id="path196-5" /><path
         d="m 270.40636,826.24783 v 3.508 h 4.79333 v 2.06933 h -4.79333 v 3.644 h 5.368 v 2.16534 h -8.07067 v -13.53334 h 8.07067 v 2.14667 z"
         style="fill:#ffffff;fill-opacity:1;fill-rule:nonzero;stroke:none;stroke-width:1.33333"
         id="path200-9" /><path
         d="m 280.80929,826.24783 v 3.508 h 4.79333 v 2.06933 h -4.79333 v 3.644 h 5.368 v 2.16534 h -8.06933 v -13.53334 h 8.06933 v 2.14667 z"
         style="fill:#ffffff;fill-opacity:1;fill-rule:nonzero;stroke:none;stroke-width:1.33333"
         id="path204-2" /><path
         d="m 291.21302,830.50303 h 2.224 c 1.54667,0 2.31867,-0.684 2.31867,-2.05067 0,-0.652 -0.188,-1.16 -0.56534,-1.52533 -0.37733,-0.36267 -0.96133,-0.54533 -1.75333,-0.54533 h -2.224 z m 4.352,7.132 -3.164,-5.272 h -1.188 v 5.272 h -2.70267 v -13.53467 h 5.15734 c 1.572,0 2.76933,0.38267 3.59333,1.152 0.824,0.76534 1.23733,1.77467 1.23733,3.02667 0,1.024 -0.28533,1.87867 -0.85333,2.57067 -0.56933,0.688 -1.38933,1.148 -2.46267,1.37866 l 3.372,5.40667 z"
         style="fill:#ffffff;fill-opacity:1;fill-rule:nonzero;stroke:none;stroke-width:1.33333"
         id="path208-9" /><path
         d="m 317.54636,837.6345 h -2.70267 l -6.05866,-9.20133 v 9.20133 h -2.70267 v -13.53333 h 2.70267 l 6.05866,9.27866 v -9.27866 h 2.70267 z"
         style="fill:#ffffff;fill-opacity:1;fill-rule:nonzero;stroke:none;stroke-width:1.33333"
         id="path214-4" /><path
         d="m 330.57036,825.18397 c 1.08533,0.81067 1.78267,1.908 2.08933,3.288 h -2.83733 c -0.268,-0.61467 -0.69333,-1.10267 -1.27467,-1.46667 -0.58133,-0.364 -1.268,-0.548 -2.06133,-0.548 -0.77867,0 -1.46933,0.18134 -2.06933,0.53734 -0.60134,0.35866 -1.068,0.87066 -1.4,1.53466 -0.332,0.664 -0.49867,1.444 -0.49867,2.33867 0,1.41733 0.38133,2.524 1.14133,3.316 0.76,0.792 1.79867,1.18933 3.11467,1.18933 0.97067,0 1.80533,-0.28933 2.50267,-0.864 0.696,-0.57466 1.14666,-1.37333 1.35066,-2.396 h -4.58266 v -1.936 h 6.84533 v 2.60667 c -0.192,0.89467 -0.56667,1.72 -1.12267,2.47333 -0.556,0.75467 -1.28266,1.35734 -2.18533,1.81067 -0.90133,0.45467 -1.932,0.68133 -3.096,0.68133 -1.32933,0 -2.5,-0.29066 -3.51733,-0.872 -1.01467,-0.58133 -1.80134,-1.392 -2.35734,-2.43466 -0.556,-1.04267 -0.83333,-2.232 -0.83333,-3.57467 0,-1.34267 0.27733,-2.53333 0.83333,-3.576 0.556,-1.04133 1.33867,-1.85733 2.348,-2.444 1.00934,-0.58667 2.17867,-0.88133 3.508,-0.88133 1.64934,0 3.016,0.40666 4.10267,1.21733"
         style="fill:#ffffff;fill-opacity:1;fill-rule:nonzero;stroke:none;stroke-width:1.33333"
         id="path218-1" /><path
         d="m 191.20716,843.7829 c 0.632,0.49467 1.04933,1.168 1.25333,2.01733 h -1.61466 c -0.16667,-0.41466 -0.42534,-0.74133 -0.77734,-0.98133 -0.35333,-0.23867 -0.77733,-0.35867 -1.27066,-0.35867 -0.408,0 -0.77467,0.10134 -1.10134,0.304 -0.32666,0.20534 -0.58133,0.49467 -0.764,0.87334 -0.18133,0.37733 -0.272,0.82133 -0.272,1.33066 0,0.50134 0.0907,0.94134 0.272,1.31867 0.18267,0.37733 0.43734,0.668 0.764,0.872 0.32667,0.20267 0.69334,0.30533 1.10134,0.30533 0.49333,0 0.91733,-0.12133 1.27066,-0.36 0.352,-0.23866 0.61067,-0.568 0.77734,-0.98133 h 1.61466 c -0.204,0.85067 -0.62133,1.52133 -1.25333,2.01733 -0.63333,0.49467 -1.428,0.74134 -2.388,0.74134 -0.73333,0 -1.38267,-0.16667 -1.94533,-0.496 -0.564,-0.332 -1,-0.79467 -1.30934,-1.39067 -0.308,-0.596 -0.46266,-1.272 -0.46266,-2.02667 0,-0.76533 0.15466,-1.444 0.46266,-2.04133 0.30934,-0.59467 0.74267,-1.05867 1.30267,-1.38933 0.56,-0.33067 1.21067,-0.496 1.952,-0.496 0.96,0 1.75467,0.248 2.388,0.74133"
         style="fill:#ffffff;fill-opacity:1;fill-rule:nonzero;stroke:none;stroke-width:1.33333"
         id="path222-6" /><path
         d="m 199.14463,844.7321 c -0.34267,0.20267 -0.60933,0.496 -0.80133,0.87733 -0.19334,0.38134 -0.28934,0.82667 -0.28934,1.33467 0,0.50933 0.096,0.95467 0.28934,1.33733 0.192,0.38134 0.45866,0.67334 0.80133,0.87734 0.34133,0.20266 0.73733,0.30533 1.188,0.30533 0.45067,0 0.84667,-0.10267 1.188,-0.30533 0.34267,-0.204 0.60933,-0.496 0.80133,-0.87734 0.19334,-0.38266 0.28934,-0.828 0.28934,-1.33733 0,-0.508 -0.096,-0.95333 -0.28934,-1.33467 -0.192,-0.38133 -0.45866,-0.67466 -0.80133,-0.87733 -0.34133,-0.20267 -0.73733,-0.30533 -1.188,-0.30533 -0.45067,0 -0.84667,0.10266 -1.188,0.30533 m 3.14533,-1.22133 c 0.584,0.33466 1.04667,0.80133 1.384,1.40133 0.33867,0.59867 0.50667,1.27733 0.50667,2.032 0,0.75733 -0.168,1.436 -0.50667,2.04 -0.33733,0.604 -0.8,1.072 -1.384,1.40667 -0.58533,0.33466 -1.23733,0.50133 -1.95733,0.50133 -0.72,0 -1.372,-0.16667 -1.95733,-0.50133 -0.584,-0.33467 -1.04667,-0.80267 -1.384,-1.40667 -0.33867,-0.604 -0.50667,-1.28267 -0.50667,-2.04 0,-0.75467 0.168,-1.43333 0.50667,-2.032 0.33733,-0.6 0.8,-1.06667 1.384,-1.40133 0.58533,-0.33467 1.23733,-0.50134 1.95733,-0.50134 0.72,0 1.372,0.16667 1.95733,0.50134"
         style="fill:#ffffff;fill-opacity:1;fill-rule:nonzero;stroke:none;stroke-width:1.33333"
         id="path226-4" /><path
         d="m 216.87049,843.20477 v 7.61067 h -1.52667 v -5.30934 l -1.95066,5.30934 h -1.33067 l -1.952,-5.288 v 5.288 h -1.53733 v -7.61067 h 1.86533 l 2.31067,5.724 2.268,-5.724 z"
         style="fill:#ffffff;fill-opacity:1;fill-rule:nonzero;stroke:none;stroke-width:1.33333"
         id="path230-4" /><path
         d="m 225.59316,845.54983 c 0,-0.38533 -0.10533,-0.68 -0.316,-0.88267 -0.21067,-0.204 -0.556,-0.30666 -1.036,-0.30666 h -1.10133 v 2.36666 h 1.10133 c 0.90133,0 1.352,-0.39333 1.352,-1.17733 m -2.45333,2.41067 v 2.85466 h -1.53734 v -7.69733 h 2.80267 c 0.908,0 1.59333,0.22 2.05467,0.65467 0.46133,0.436 0.692,1.028 0.692,1.77733 0,0.73333 -0.23734,1.31867 -0.71334,1.75467 -0.47733,0.43733 -1.15466,0.656 -2.03333,0.656 z"
         style="fill:#ffffff;fill-opacity:1;fill-rule:nonzero;stroke:none;stroke-width:1.33333"
         id="path234-9" /><path
         d="m 235.01049,848.10063 -1.13333,-3.24933 -1.13467,3.24933 z m 0.41467,1.16667 h -3.08534 l -0.54533,1.548 h -1.624 l 2.83467,-7.61067 h 1.75466 l 2.824,7.61067 h -1.624 z"
         style="fill:#ffffff;fill-opacity:1;fill-rule:nonzero;stroke:none;stroke-width:1.33333"
         id="path238-0" /><path
         d="m 248.13022,850.81543 h -1.53733 l -3.44534,-5.23333 v 5.23333 h -1.53733 v -7.69733 h 1.53733 l 3.44534,5.27733 v -5.27733 h 1.53733 z"
         style="fill:#ffffff;fill-opacity:1;fill-rule:nonzero;stroke:none;stroke-width:1.33333"
         id="path242-5" /><path
         d="m 258.92782,843.11757 -2.60667,5.00533 v 2.692 h -1.54666 v -2.692 l -2.61734,-5.00533 h 1.76667 l 1.63467,3.36933 1.636,-3.36933 z"
         style="fill:#ffffff;fill-opacity:1;fill-rule:nonzero;stroke:none;stroke-width:1.33333"
         id="path246-4" /><path
         d="m 247.20062,794.7061 v 15.04133 h -62.71067 v -80.98666 h 61.208 v 15.04133 h -42.576 v 17.58533 h 37.596 v 14.58 h -37.596 v 18.73867 z"
         style="fill:#ffffff;fill-opacity:1;fill-rule:nonzero;stroke:none;stroke-width:1.33333"
         id="path254-5" /><path
         d="m 277.06516,805.75557 c -6.672,-3.584 -11.91333,-8.55867 -15.73333,-14.92267 -3.816,-6.36533 -5.72667,-13.55733 -5.72667,-21.57866 0,-8.02134 1.91067,-15.21334 5.72667,-21.57867 3.82,-6.36267 9.06133,-11.33733 15.73333,-14.92266 6.672,-3.584 14.172,-5.38267 22.50533,-5.38267 7.016,0 13.36267,1.23733 19.02934,3.70267 5.672,2.47333 10.43333,6.02266 14.29066,10.64799 l -12.032,11.108 c -5.48266,-6.324 -12.26666,-9.488 -20.364,-9.488 -5.016,0 -9.488,1.10134 -13.42133,3.29467 -3.93333,2.20133 -6.99733,5.264 -9.19867,9.19867 -2.2,3.93333 -3.29333,8.40933 -3.29333,13.42 0,5.016 1.09333,9.488 3.29333,13.42 2.20134,3.93466 5.26534,6.99733 9.19867,9.19866 3.93333,2.2 8.40533,3.296 13.42133,3.296 8.09734,0 14.88134,-3.19466 20.364,-9.60133 l 12.032,11.108 c -3.85733,4.70267 -8.64266,8.29333 -14.35066,10.76 -5.70667,2.46533 -12.072,3.70267 -19.08667,3.70267 -8.25733,0 -15.716,-1.79334 -22.388,-5.38267"
         style="fill:#ffffff;fill-opacity:1;fill-rule:nonzero;stroke:none;stroke-width:1.33333"
         id="path258-8" /><path
         d="m 141.67983,776.42357 h 25.68667 v -15.036 h -34.89734 z"
         style="fill:#e30613;fill-opacity:1;fill-rule:nonzero;stroke:none;stroke-width:1.33333"
         id="path262-7" /><path
         d="m 111.13943,728.76077 v 80.98666 h 18.744 V 743.8021 h 42.464 v -15.04133 z"
         style="fill:#ffffff;fill-opacity:1;fill-rule:nonzero;stroke:none;stroke-width:1.33333"
         id="path266-1" /></g></g></svg>
